<svg class="svg-icon" style="width: 1.6083984375em;height: 1em;vertical-align: middle;fill: currentColor;overflow: hidden;" viewBox="0 0 1647 1024" version="1.1" xmlns="http://www.w3.org/2000/svg"><path d="M530.69913 39.846957c270.469565 0 489.73913 219.269565 489.739131 489.73913s-219.269565 489.73913-489.739131 489.73913-489.73913-219.269565-489.73913-489.73913 219.269565-489.73913 489.73913-489.73913" fill="#CF8E28" /><path d="M1154.003478 39.846957c-270.06887 0-489.73913 219.670261-489.73913 489.73913 0 270.024348 219.670261 489.73913 489.73913 489.73913 270.024348 0 489.73913-219.714783 489.739131-489.73913 0-270.06887-219.714783-489.73913-489.739131-489.73913" fill="#EEAF4B" /><path d="M397.133913 796.716522a89.043478 89.043478 0 1 1 0-178.086957 89.043478 89.043478 0 0 1 0 178.086957z m0-311.652174a89.043478 89.043478 0 1 1-0.044522-178.042435 89.043478 89.043478 0 0 1 0.044522 178.042435zM1243.046957 841.238261a89.043478 89.043478 0 1 1-0.044522-178.042435 89.043478 89.043478 0 0 1 0.044522 178.042435z m133.565217-400.695652a89.043478 89.043478 0 1 1-0.044522-178.042435 89.043478 89.043478 0 0 1 0.044522 178.042435zM931.394783 485.064348a89.043478 89.043478 0 1 1-0.044522-178.042435 89.043478 89.043478 0 0 1 0.044522 178.042435" fill="#9C5431" /></svg>