<svg class="svg-icon" style="width: 1.001953125em;height: 1em;vertical-align: middle;fill: currentColor;overflow: hidden;" viewBox="0 0 1026 1024" version="1.1" xmlns="http://www.w3.org/2000/svg"><path d="M276.03711 447.974912l-3.880309-31.84529a10.971906 10.971906 0 0 1 3.21129-9.098654L309.488044 374.650464a10.436691 10.436691 0 0 1 8.295832-2.943682l23.28185 2.007056a10.704299 10.704299 0 0 1 8.96485 14.317l-10.971906 26.760747a10.302888 10.302888 0 0 0 0.936626 10.03528l24.35228 36.662224a10.570495 10.570495 0 0 1-1.605645 13.380374l-33.986149 30.908663a10.302888 10.302888 0 0 0-2.943682 4.147916l-10.302888 28.232589a10.971906 10.971906 0 0 0 3.21129 11.908532l4.281719 3.478897a10.704299 10.704299 0 0 1 3.612701 10.436692 269.748334 269.748334 0 0 0-5.485953 89.782307A1734.765451 1734.765451 0 0 1 147.184111 735.920554a10.704299 10.704299 0 0 0 1.605645 20.471972c59.542663 22.479028 219.170521 42.951 380.136417 41.612962 182.24069-1.471841 300.656997-17.126878 349.762969-41.612962 9.633869-4.816935 11.373318-16.993075 1.204233-20.471972a1097.993467 1097.993467 0 0 1-178.226578-83.894943 155.881354 155.881354 0 0 0-16.859271-94.599242 11.10571 11.10571 0 0 1 0-9.232458v-0.936626A10.704299 10.704299 0 0 0 682.399059 535.214948l-30.373448-25.021298a10.570495 10.570495 0 0 1-3.746505-6.556384l-13.380373-86.838625a10.436691 10.436691 0 0 0-2.14086-4.816934l-25.957925-33.584738a10.971906 10.971906 0 0 1-0.802823-12.042337l16.056449-26.760747a10.704299 10.704299 0 0 0-1.739449-13.380374l-99.951391-97.409121a10.570495 10.570495 0 0 0-10.704299-2.542271l-204.318307 64.493402a10.03528 10.03528 0 0 0-6.288776 5.352149L240.846727 409.97465a10.436691 10.436691 0 0 0 0.802822 11.105711l22.612832 31.310074a6.288776 6.288776 0 0 0 11.774729-4.415523z" fill="#7AABF1" /><path d="M513.672547 811.653469c-161.634914 0-313.63596-21.14099-369.83353-42.549588a25.690318 25.690318 0 0 1-16.993074-23.683262 23.014243 23.014243 0 0 1 15.38743-21.810009 1649.398667 1649.398667 0 0 0 163.775774-77.204756 302.128838 302.128838 0 0 1 7.225402-83.627336l-3.077486-2.542271a23.950869 23.950869 0 0 1-7.091598-26.760747l10.169084-28.098785a25.957925 25.957925 0 0 1 6.422579-9.500065l32.246701-29.436822-23.014243-34.655168a23.549458 23.549458 0 0 1-2.14086-22.612832l9.500065-23.014243-18.331112-1.739448-32.2467 31.310074 3.746504 30.641056a19.802953 19.802953 0 0 1-35.591794 13.380374l-22.612831-31.310075a24.084673 24.084673 0 0 1-2.007056-25.021299l57.803214-113.86698a24.084673 24.084673 0 0 1 14.317-12.042336L505.644322 214.085979a23.950869 23.950869 0 0 1 24.084673 5.887365l99.148569 96.33869a23.950869 23.950869 0 0 1 3.880309 29.303019l-14.986019 25.824121 24.486084 32.112897a22.345224 22.345224 0 0 1 4.683131 10.971907l13.380374 85.901999 29.436822 24.35228a24.084673 24.084673 0 0 1 6.82399 27.964981 173.944858 173.944858 0 0 1 18.732524 92.324579 1070.429897 1070.429897 0 0 0 168.325101 78.408989 22.612832 22.612832 0 0 1 15.788841 20.070561 26.760747 26.760747 0 0 1-15.38743 25.155103c-53.521495 26.760747-176.353325 41.479158-355.650333 42.950999z m-355.115119-65.697635c60.077878 20.605776 210.740886 40.141121 370.101137 38.936888 168.458905-1.471841 288.748465-14.986019 340.1291-38.401673a1127.8317 1127.8317 0 0 1-173.944858-82.556906l-8.429636-4.950738 2.007056-9.500065a144.909447 144.909447 0 0 0-15.655037-85.634392 23.549458 23.549458 0 0 1-0.936626-19.669149l-28.767804-23.817065a23.950869 23.950869 0 0 1-8.429635-14.718412l-14.183196-86.838625-25.42271-32.380504a24.084673 24.084673 0 0 1-1.739449-26.760748L608.271789 334.509343l-96.071083-95.000654-201.776036 63.690579L254.2271 414.791585l5.619757 7.760617v-4.683131a24.084673 24.084673 0 0 1 7.091599-20.204364l34.119952-33.183327a24.619888 24.619888 0 0 1 18.866327-6.690187l23.281851 2.14086a24.084673 24.084673 0 0 1 20.07056 33.183327l-10.436691 25.155102 23.549457 35.324187a23.950869 23.950869 0 0 1-3.746504 31.176271l-33.986149 31.042467-8.964851 25.288906 2.809879 2.274663a24.084673 24.084673 0 0 1 8.162028 23.683262 257.705998 257.705998 0 0 0-6.021169 84.563962l1.739449 9.500065-8.563439 4.549327a1736.5049 1736.5049 0 0 1-169.261728 80.282242z m169.529335-203.247876z m23.281851-123.233242zM285.403371 414.791585z" fill="#4C4372" /><path d="M596.363256 567.86306c28.098785-1.471841 58.070822-3.746505 89.648504-6.957794" fill="#E7677C" /><path d="M596.898471 577.229322l-1.07043-18.59872c29.570626-1.605645 59.676467-4.014112 89.247093-7.091598l2.007056 18.59872c-29.972037 3.21129-60.345485 5.218346-90.183719 7.091598z" fill="#4C4372" /><path d="M327.150137 557.82778a895.548412 895.548412 0 0 0 96.338691 9.901477" fill="#E7677C" /><path d="M422.953613 577.095518a891.132889 891.132889 0 0 1-97.409121-10.03528l3.345094-18.464916a855.541095 855.541095 0 0 0 95.134457 9.767673z" fill="#4C4372" /><path d="M600.511172 676.779302a474.735659 474.735659 0 0 0 101.289429-24.486084" fill="#E7677C" /><path d="M602.116817 686.01176l-2.408467-18.464916a463.094734 463.094734 0 0 0 99.416176-24.084672l6.288776 17.528289A473.531426 473.531426 0 0 1 602.116817 686.01176z" fill="#4C4372" /><path d="M321.128969 654.166471a618.70848 618.70848 0 0 0 102.627466 21.810009" fill="#E7677C" /><path d="M422.284594 685.342741a628.877564 628.877564 0 0 1-104.366915-22.345224l5.887365-17.795897a623.926826 623.926826 0 0 0 101.021821 21.542402z" fill="#4C4372" /><path d="M424.425454 572.412387v108.514831a10.704299 10.704299 0 0 0 10.570495 10.704299l151.867242 1.605645a10.436691 10.436691 0 0 0 10.704299-10.169084 896.485039 896.485039 0 0 0 0-113.599373 10.570495 10.570495 0 0 0-9.901477-9.098654 903.041422 903.041422 0 0 0-154.008101 1.605645 10.570495 10.570495 0 0 0-9.232458 10.436691z" fill="#F0C48A" /><path d="M587.264602 706.617536l-151.867241-1.605645a24.218476 24.218476 0 0 1-23.817066-24.084673v-108.514831A24.218476 24.218476 0 0 1 431.78466 548.595322 910.802038 910.802038 0 0 1 588.736443 546.989677a23.817065 23.817065 0 0 1 22.211421 20.73958 873.6046 873.6046 0 0 1 0.802822 115.874036 23.817065 23.817065 0 0 1-24.486084 23.014243z m-149.191167-28.366393l146.515092 1.605645a913.076702 913.076702 0 0 0 0-107.042989 917.893636 917.893636 0 0 0-146.381288 1.338037z" fill="#4C4372" /><path d="M334.509343 568.532079s15.788841 3.21129 80.282242 8.162028v89.5147s-72.254018-13.380374-88.042859-19.535346a388.030838 388.030838 0 0 1 7.760617-78.141382zM606.53234 576.560303s65.296224-4.28172 73.725859-5.485953a147.184111 147.184111 0 0 1 12.577552 47.901738 86.30341 86.30341 0 0 1 0 26.760747s-33.183327 10.704299-52.718673 14.718411-33.584738 6.288776-33.584738 6.288776a784.223703 784.223703 0 0 0 0-90.183719z" fill="#E7677C" /></svg>