<svg class="svg-icon" style="width: 1em; height: 1em;vertical-align: middle;fill: currentColor;overflow: hidden;" viewBox="0 0 1024 1024" version="1.1" xmlns="http://www.w3.org/2000/svg"><path d="M453.3 896.5c-15 0-27.2-12.2-27.2-27.2V833c0-15 12.2-27.2 27.2-27.2h115.3c15 0 27.2 12.2 27.2 27.2v36.3c0 15-12.2 27.2-27.2 27.2H453.3z" fill="#F48547" /><path d="M568.5 818.3c8.1 0 14.7 6.6 14.7 14.7v36.3c0 8.1-6.6 14.7-14.7 14.7H453.3c-8.1 0-14.7-6.6-14.7-14.7V833c0-8.1 6.6-14.7 14.7-14.7h115.2m0-25.2H453.3c-22 0-39.8 17.9-39.8 39.8v36.3c0 22 17.9 39.8 39.8 39.8h115.3c22 0 39.8-17.9 39.8-39.8V833c0-22-17.9-39.9-39.9-39.9z" fill="#262626" /><path d="M180.3 491.3s8.5 350.3 332.9 350.3S844 491.3 844 491.3H180.3z" fill="#F48547" /><path d="M513.2 862.5c-340.9 0-353.8-367-353.9-370.7-0.1-5.6 2-11.1 5.9-15.1 3.9-4 9.3-6.3 15-6.3H844c5.6 0 11 2.3 14.9 6.3 3.9 4 6.1 9.4 6 15.1 0 3.6-10.7 370.7-351.7 370.7zM202.8 512.2c7.6 73.8 52.3 308.4 310.4 308.4 125.8 0 216-54.9 268.2-163.3 27.6-57.4 37-115 40.1-145.1H202.8z" fill="#262626" /><path d="M201 483.4a311 121.1 0 1 0 622 0 311 121.1 0 1 0-622 0Z" fill="#CC663A" /><path d="M512 397.2c-155.4 0-284.1 44.4-307.3 102.3-2.1 9.5-3.1 17.8-3.5 22.6 5.3 65.1 142.3 117.2 310.8 117.2 168.3 0 305.3-52 310.8-117-0.2-6.6-1.1-13.1-2.4-19.6-19.6-59.5-150.1-105.5-308.4-105.5z" fill="#ED9B3A" /><path d="M512.7 397.2c-155.4 0-284.1 44.4-307.3 102.3-2.1 9.5-3.1 17.8-3.5 22.6 5.3 65.1 142.3 117.2 310.8 117.2 168.3 0 305.3-52 310.8-117-0.2-6.6-1.1-13.1-2.4-19.6-19.5-59.5-150.1-105.5-308.4-105.5z" fill="#FFCE99" /><path d="M375.2 522.9s14.2-21.5 17.9-20.8 19 5.6 19 5.6l4.1 18.7c0.1 0.1-32.9 10.3-41-3.5zM566.8 512.3s7.4-11.2 9.3-10.8c1.9 0.4 9.9 2.9 9.9 2.9l2.1 9.7c0.1 0.1-17.1 5.4-21.3-1.8zM661 571.3s3.2-27 6.9-26.3c3.7 0.7 19 5.6 19 5.6l4.1 18.7c0 0.1-22 15.8-30 2zM723.5 490.3s6.1-14 8.4-13c2.2 0.9 11.7 6 11.7 6l4.3 13.8s-18.3 3.9-24.4-6.8zM467.2 601.2s14.2-21.5 17.9-20.8 19 5.6 19 5.6l4.1 18.7c0.1 0.1-32.9 10.3-41-3.5zM642.6 446.1s7.4-11.1 9.3-10.7c1.9 0.4 9.9 2.9 9.9 2.9l2.1 9.7c0-0.1-17.1 5.2-21.3-1.9zM621.9 477.6s11.3-17 14.2-16.4 15.1 4.5 15.1 4.5l3.2 14.8s-26.1 8.1-32.5-2.9z" fill="#D86125" /><path d="M592.1 627.5s5.8 0 17.9-3.9 10.2 7.3 10.2 7.3l-21.8 12.6-6.3-16zM361.1 585.1s5.8 0 17.9-3.9c12.1-3.9 10.2 7.3 10.2 7.3l-21.8 12.6-6.3-16zM406.5 470.1s5.8 0 17.9-2.6 10.2 4.8 10.2 4.8l-21.8 8.3-6.3-10.5zM247.1 495.7l17.7 0.7 10.1-0.7-23.8 10.4z" fill="#5BCE7E" /><path d="M313.1 459c1.6-0.3 25.9-7.9 25.9-7.9l7.8 12.8-27.2 7.5-6.5-12.4zM459.8 624.3c-1.3 0.9 0.2 2.2 2.5 2.1 2.8-0.1 4.1 1.7 1.6 2.4-1.9 0.5-1.6 1.9 0.6 2.3 2.6 0.4 2.3 2.3-0.4 2.4-2.2 0.1-3 1.4-1.4 2.1 2.1 0.9 0.2 2.4-2.4 2-2.1-0.3-4 0.7-3 1.6 1.2 1.2-1.8 2.2-3.9 1.4-1.7-0.7-4.3-0.1-4.2 0.9 0.1 1.3-3.6 1.7-4.9 0.5-1-0.9-3.9-0.9-4.7 0-1 1.2-4.9 0.8-5-0.5-0.1-1-2.9-1.6-4.5-0.9-2 0.9-5.4-0.2-4.4-1.4 0.8-1-1.4-2-3.5-1.7-2.7 0.4-5.1-1.2-3-2.1 1.7-0.7 0.5-2.1-1.9-2.2-3-0.1-3.8-2.1-1-2.5 2.3-0.3 2.4-1.8 0.1-2.4-2.8-0.7-1.8-2.6 1.3-2.4 2.5 0.2 3.8-1.1 2.2-2.1-2-1.2 0.6-2.7 3.4-1.9 2.2 0.6 4.6-0.2 4-1.4-0.9-1.5 3-2.2 4.9-1 1.5 1 4.6 0.7 4.9-0.4 0.5-1.4 4.7-1.4 5.4 0.1 0.6 1.2 3.6 1.5 4.9 0.6 1.6-1.2 5.4-0.3 4.9 1.1-0.4 1.1 2.1 2 4 1.5 2.4-0.7 5.2 0.8 3.5 1.9z" fill="#FFFFFF" /><path d="M430.4 636.4c-2.6-1.3-4.4-2.9-5.1-4.6-0.8-2 0.1-4 2.7-5.7 2.5-1.7 6.3-2.8 10.6-3.1 3.5-0.3 7 0.1 9.9 1.1 2.8 1 4.6 2.4 5.1 4.1 0.4 1.3-0.3 2.7-2 3.8-1.7 1.1-4.2 1.8-7 2.1-4.9 0.4-9.5-1.1-10.3-3.4-0.3-0.9 0.1-1.9 1.3-2.7 1.2-0.8 3-1.3 5-1.5 1-0.1 1.9 0.2 2.1 0.7 0.2 0.5-0.5 0.9-1.5 1-1.1 0.1-2 0.4-2.6 0.8-0.6 0.4-0.9 0.9-0.7 1.4 0.5 1.4 3.3 2.3 6.2 2.1 1.9-0.2 3.6-0.7 4.7-1.4s1.6-1.6 1.3-2.5c-0.8-2.5-5.7-4.2-10.9-3.8-3.3 0.3-6.2 1.1-8.2 2.4-1.9 1.3-2.7 2.9-2.1 4.4 0.8 2 3.1 3.7 6.5 4.8 3.4 1.1 7.5 1.5 11.6 1.1 0.9-0.1 1.8 0.2 2 0.6 0.1 0.4-0.5 0.9-1.4 0.9-5 0.4-10 0-14.2-1.4-1.1-0.3-2.1-0.7-3-1.2z" fill="#FF94D6" /><path d="M610.1 553c-1.3 0.9 0.2 2.2 2.5 2.1 2.8-0.1 4.1 1.7 1.6 2.4-1.9 0.5-1.6 1.9 0.6 2.3 2.6 0.4 2.3 2.3-0.4 2.4-2.2 0.1-3 1.4-1.4 2.1 2.1 0.9 0.2 2.4-2.4 2-2.1-0.3-4 0.7-3 1.6 1.2 1.2-1.8 2.2-3.9 1.4-1.7-0.7-4.3-0.1-4.2 0.9 0.1 1.3-3.6 1.7-4.9 0.5-1-0.9-3.9-0.9-4.7 0-1 1.2-4.9 0.8-5-0.5-0.1-1-2.9-1.6-4.5-0.9-2 0.9-5.4-0.2-4.4-1.4 0.8-1-1.4-2-3.5-1.7-2.7 0.4-5.1-1.2-3-2.1 1.7-0.7 0.5-2.1-1.9-2.2-3-0.1-3.8-2.1-1-2.5 2.3-0.3 2.4-1.8 0.1-2.4-2.8-0.7-1.8-2.6 1.3-2.4 2.5 0.2 3.8-1.1 2.2-2.1-2-1.2 0.6-2.7 3.4-1.9 2.2 0.6 4.6-0.2 4-1.4-0.9-1.5 3-2.2 4.9-1 1.5 1 4.6 0.7 4.9-0.4 0.5-1.4 4.7-1.4 5.4 0.1 0.6 1.2 3.6 1.5 4.9 0.6 1.6-1.2 5.4-0.3 4.9 1.1-0.4 1.1 2.1 2 4 1.5 2.4-0.7 5.1 0.8 3.5 1.9z" fill="#FFFFFF" /><path d="M580.7 565.1c-2.6-1.3-4.4-2.9-5.1-4.6-0.8-2 0.1-4 2.7-5.7 2.5-1.7 6.3-2.8 10.6-3.1 3.5-0.3 7 0.1 9.9 1.1 2.8 1 4.6 2.4 5.1 4.1 0.4 1.3-0.3 2.7-2 3.8-1.7 1.1-4.2 1.8-7 2.1-4.9 0.4-9.5-1.1-10.3-3.4-0.3-0.9 0.1-1.9 1.3-2.7 1.2-0.8 3-1.3 5-1.5 1-0.1 1.9 0.2 2.1 0.7 0.2 0.5-0.5 0.9-1.5 1-1.1 0.1-2 0.4-2.6 0.8-0.6 0.4-0.9 0.9-0.7 1.4 0.5 1.4 3.3 2.3 6.2 2.1 1.9-0.2 3.6-0.7 4.7-1.4s1.6-1.6 1.3-2.5c-0.8-2.5-5.7-4.2-10.9-3.8-3.3 0.3-6.2 1.1-8.2 2.4-1.9 1.3-2.7 2.9-2.1 4.4 0.8 2 3.1 3.7 6.5 4.8 3.4 1.1 7.5 1.5 11.6 1.1 0.9-0.1 1.8 0.2 2 0.6 0.1 0.4-0.5 0.9-1.4 0.9-5 0.4-10 0-14.2-1.4-1.1-0.3-2.1-0.7-3-1.2z" fill="#FF94D6" /><path d="M678.2 510.9c-0.7 0.5 0.1 1.2 1.4 1.1 1.5-0.1 2.2 0.9 0.9 1.3-1.1 0.3-0.9 1.1 0.3 1.2 1.5 0.2 1.3 1.3-0.2 1.3-1.2 0-1.7 0.8-0.8 1.2 1.1 0.5 0.1 1.3-1.3 1.1-1.2-0.2-2.2 0.4-1.7 0.9 0.7 0.6-1 1.2-2.2 0.8-0.9-0.4-2.4-0.1-2.3 0.5 0.1 0.7-2 0.9-2.7 0.3-0.5-0.5-2.2-0.5-2.6 0-0.5 0.7-2.7 0.5-2.8-0.3-0.1-0.6-1.6-0.9-2.5-0.5-1.1 0.5-3-0.1-2.4-0.8 0.5-0.5-0.8-1.1-2-0.9-1.5 0.2-2.8-0.7-1.6-1.2 0.9-0.4 0.3-1.2-1.1-1.2-1.7-0.1-2.1-1.2-0.5-1.4 1.2-0.2 1.3-1 0.1-1.3-1.5-0.4-1-1.5 0.7-1.3 1.4 0.1 2.1-0.6 1.2-1.1-1.1-0.7 0.4-1.5 1.9-1 1.2 0.3 2.6-0.1 2.2-0.8-0.5-0.8 1.6-1.2 2.7-0.5 0.8 0.5 2.5 0.4 2.7-0.2 0.2-0.8 2.6-0.7 3 0.1 0.3 0.6 2 0.8 2.7 0.3 0.9-0.6 3-0.1 2.7 0.6-0.2 0.6 1.1 1.1 2.2 0.8 1.4-0.5 2.9 0.4 2 1z" fill="#FFFFFF" /><path d="M662.1 517.5c-1.4-0.7-2.4-1.6-2.8-2.6-0.4-1.1 0.1-2.2 1.5-3.2 1.4-0.9 3.5-1.5 5.8-1.7 1.9-0.1 3.9 0.1 5.4 0.6 1.6 0.5 2.5 1.3 2.8 2.2 0.2 0.7-0.2 1.5-1.1 2.1-0.9 0.6-2.3 1-3.8 1.1-2.7 0.2-5.2-0.6-5.7-1.9-0.2-0.5 0.1-1.1 0.7-1.5 0.7-0.4 1.6-0.7 2.7-0.8 0.5 0 1.1 0.1 1.1 0.4 0.1 0.3-0.3 0.5-0.8 0.5-0.6 0-1.1 0.2-1.4 0.4-0.3 0.2-0.5 0.5-0.4 0.8 0.3 0.8 1.8 1.3 3.4 1.1 1-0.1 2-0.4 2.6-0.8 0.6-0.4 0.9-0.9 0.7-1.4-0.4-1.4-3.1-2.3-6-2.1-1.8 0.1-3.4 0.6-4.5 1.3-1.1 0.7-1.5 1.6-1.1 2.4 0.4 1.1 1.7 2 3.6 2.6 1.9 0.6 4.1 0.8 6.4 0.6 0.5 0 1 0.1 1.1 0.4 0.1 0.2-0.3 0.5-0.8 0.5-2.7 0.2-5.5 0-7.8-0.8-0.6 0.3-1.1 0.1-1.6-0.2z" fill="#FF94D6" /><path d="M466.4 444.1h17.7c0.1-0.5 0.2-1.1 0.5-1.4 1-1 0.7-3.6-0.4-3.4-0.9 0.1-1.3-1.7-0.7-3 0.7-1.6-0.1-3.7-1.1-2.8-0.8 0.8-1.6-0.5-1.4-2.1 0.4-1.9-1-3.2-1.7-1.6-0.6 1.3-1.7 0.8-1.8-0.9-0.1-2-1.7-2.2-2-0.2-0.3 1.6-1.5 2-1.9 0.6-0.6-1.7-2.1-0.7-2 1.4 0.1 1.7-1 2.9-1.8 2-1-1.1-2.3 1-1.7 2.7 0.5 1.4-0.3 3.3-1.3 3.1-1.2-0.3-2 2.6-1 3.7 0.6 0.4 0.7 1.2 0.6 1.9z" fill="#FFFFFF" /><path d="M470.5 444.1v-0.4c0.6-3.8 2.6-6.3 4.6-5.4 0.7 0.3 1.3 1.1 1.7 2.3 0.3 1.1 0.4 2.3 0.2 3.6h1.4c0.1-1.7 0-3.5-0.4-5-0.5-1.8-1.4-3-2.5-3.4-1.3-0.6-2.7-0.1-3.9 1.3-1.2 1.4-2.1 3.6-2.5 6.2v1h1.4z" fill="#FF94D6" /><path d="M472.1 443.6v0.4h1.4c0.1-0.7-0.1-1.3-0.5-1.5-0.5 0-0.8 0.4-0.9 1.1z" fill="#FF94D6" /><path d="M537.7 427.4c2.6-0.5 18.9-4.3 18.9-4.3l13.8 7.7-20.2 5.4-12.5-8.8z" fill="#FFFFFF" /><path d="M537.7 427.4v16.3l12.5 7.8v-15.4zM550.2 436.1l20.2-5.4v17.5l-20.2 3.3z" fill="#FFFFFF" /><path d="M313.1 538.1c1.1-0.1 7.6-1.3 7.6-1.3l6.6 4.7-9 1.2-5.2-4.6z" fill="#FFFFFF" /><path d="M313.1 538.1l-0.5 6.9 5.3 3.1 0.4-5.3z" fill="#FFFFFF" /><path d="M318.3 542.8l9-1.3-0.5 6.1-8.9 0.5z" fill="#FFFFFF" /><path d="M467.7 488.9c1.6-0.3 10.4-3.3 10.4-3.3l9.7 7.4-12.4 3.3-7.7-7.4zM467.7 488.9V501l7.7 4.8v-9.4z" fill="#FFFFFF" /><path d="M475.4 496.4l12.4-3.3v10.7l-12.4 2z" fill="#FFFFFF" /><path d="M373 546.7s56.3-0.6 68.4 1 39.7 3.9 39.7 3.9 76.6-5.5 85.8-4.9-97.6 16.8-106.3 14.5c-8.8-2.2-76-10.7-87.6-14.5zM355.9 446.3s56.3-0.6 68.4 1c12.1 1.6 41.8-3.2 41.8-3.2s52-2.5 57 3.5c-27.4-3.2-61.9 6.8-93.6 7.8-9 0.3-62-5.4-73.6-9.1z" fill="#FFBF80" /><path d="M512 362.3c171.8 0 311 54.2 311 121.1S683.8 604.5 512 604.5s-311-54.2-311-121.1 139.2-121.1 311-121.1m0-41.9c-175.4 0-352.9 56-352.9 163s177.5 163 352.9 163c175.4 0 352.9-56 352.9-163s-177.5-163-352.9-163z" fill="#262626" /><path d="M382.2 278.1c-2.9 0-5.9-1-8.3-3.1-5.2-4.6-5.8-12.5-1.2-17.7 23.4-26.8 15.6-47.9 8.9-58.2-1.8-2.8-4.4-5.9-7.2-9.1-13.4-15.8-35.7-42.2-3.4-85.7 4.1-5.6 12-6.7 17.6-2.6 5.6 4.1 6.7 12 2.6 17.6-20.4 27.5-10.9 38.9 2.4 54.5 3.1 3.7 6.4 7.5 9.1 11.6 6.7 10.2 25.6 46.6-11 88.5-2.6 2.7-6 4.2-9.5 4.2z" fill="#262626" /><path d="M509.3 236.4c-2.9 0-5.9-1-8.3-3.1-5.2-4.6-5.8-12.5-1.2-17.7 23.4-26.8 15.6-47.9 8.9-58.2-1.8-2.8-4.4-5.9-7.2-9.1-13.4-15.8-35.8-42.2-3.4-85.8 4.1-5.6 12-6.7 17.6-2.6 5.6 4.1 6.7 12 2.6 17.6-20.4 27.5-10.9 38.9 2.4 54.5 3.1 3.7 6.4 7.5 9 11.6 6.7 10.2 25.6 46.6-11 88.5-2.4 2.9-5.9 4.3-9.4 4.3z" fill="#262626" /><path d="M636.4 278.1c-2.9 0-5.9-1-8.3-3.1-5.2-4.6-5.8-12.5-1.2-17.7 23.4-26.8 15.6-47.9 8.9-58.2-1.8-2.8-4.4-5.9-7.2-9.1-13.4-15.8-35.7-42.2-3.4-85.7 4.1-5.6 12-6.7 17.6-2.6 5.6 4.1 6.7 12 2.6 17.6-20.4 27.5-10.9 38.9 2.4 54.5 3.1 3.7 6.4 7.5 9.1 11.6 6.7 10.2 25.6 46.6-11 88.5-2.5 2.7-6 4.2-9.5 4.2z" fill="#262626" /></svg>