<svg xmlns="http://www.w3.org/2000/svg" xmlns:xlink="http://www.w3.org/1999/xlink" version="1.1" width="1000" height="1000" viewBox="0 0 1000 1000" xml:space="preserve">
<desc>Created with Fabric.js 3.5.0</desc>
<defs>
</defs>
<rect x="0" y="0" width="100%" height="100%" fill="#ffffff"/>
<g transform="matrix(10.8705 0 0 6.3194 498.3656 500.8368)" id="356810">
<filter id="SVGID_178" y="-33.16%" height="166.32%" x="-42.79%" width="185.57999999999998%">
	<feGaussianBlur in="SourceAlpha" stdDeviation="5"/>
	<feOffset dx="10" dy="10" result="oBlur"/>
	<feFlood flood-color="rgb(0,0,0)" flood-opacity="1"/>
	<feComposite in2="oBlur" operator="in"/>
	<feMerge>
		<feMergeNode/>
		<feMergeNode in="SourceGraphic"/>
	</feMerge>
</filter>
<path style="stroke: rgb(11,15,18); stroke-width: 36; stroke-dasharray: none; stroke-linecap: butt; stroke-dashoffset: 0; stroke-linejoin: miter; stroke-miterlimit: 4; is-custom-font: none; font-file-url: none; fill: none; fill-rule: nonzero; opacity: 1;filter: url(#SVGID_178);" vector-effect="non-scaling-stroke" transform=" translate(-46.5001, -78.5)" d="M 2.6167 78.5 C 2.6167 57.2341 7.7391 38.064 15.8764 24.2946 C 24.0482 10.4665 34.9664 2.5 46.5001 2.5 C 58.0338 2.5 68.952 10.4665 77.1238 24.2946 C 85.2611 38.064 90.3835 57.2341 90.3835 78.5 C 90.3835 99.7659 85.2611 118.936 77.1238 132.705 C 68.952 146.533 58.0338 154.5 46.5001 154.5 C 34.9664 154.5 24.0482 146.533 15.8764 132.705 C 7.7391 118.936 2.6167 99.7659 2.6167 78.5 Z" stroke-linecap="round"/>
</g>
<g transform="matrix(7.3876 0 0 2.058 499.163 851.921)" id="63909">
<path style="stroke: none; stroke-width: 1; stroke-dasharray: none; stroke-linecap: butt; stroke-dashoffset: 0; stroke-linejoin: miter; stroke-miterlimit: 4; is-custom-font: none; font-file-url: none; fill: rgb(33,45,54); fill-rule: nonzero; opacity: 1;" vector-effect="non-scaling-stroke" transform=" translate(-67.5, -67.5)" d="M 67.5 135 C 104.779 135 135 104.779 135 67.5 C 135 30.2208 104.779 0 67.5 0 C 30.2208 0 0 30.2208 0 67.5 C 0 104.779 30.2208 135 67.5 135 Z" stroke-linecap="round"/>
</g>
<g transform="matrix(0.425 0 0 0.425 499.9875 407.104)" id="972372">
<g style="" vector-effect="non-scaling-stroke">
		<g transform="matrix(1 0 0 1 -292.8009 17.5861)">
<path style="stroke: none; stroke-width: 1; stroke-dasharray: none; stroke-linecap: butt; stroke-dashoffset: 0; stroke-linejoin: miter; stroke-miterlimit: 4; is-custom-font: none; font-file-url: none; fill: rgb(207,142,40); fill-rule: nonzero; opacity: 1;" transform=" translate(-530.6991, -529.5861)" d="M 530.69913 39.846957 c 270.469565 0 489.73913 219.269565 489.739131 489.73913 s -219.269565 489.73913 -489.739131 489.73913 s -489.73913 -219.269565 -489.73913 -489.73913 s 219.269565 -489.73913 489.73913 -489.73913" stroke-linecap="round"/>
</g>
		<g transform="matrix(1 0 0 1 330.5034 17.5861)">
<path style="stroke: none; stroke-width: 1; stroke-dasharray: none; stroke-linecap: butt; stroke-dashoffset: 0; stroke-linejoin: miter; stroke-miterlimit: 4; is-custom-font: none; font-file-url: none; fill: rgb(238,175,75); fill-rule: nonzero; opacity: 1;" transform=" translate(-1154.0035, -529.5861)" d="M 1154.003478 39.846957 c -270.06887 0 -489.73913 219.670261 -489.73913 489.73913 c 0 270.024348 219.670261 489.73913 489.73913 489.73913 c 270.024348 0 489.73913 -219.714783 489.739131 -489.73913 c 0 -270.06887 -219.714783 -489.73913 -489.739131 -489.73913" stroke-linecap="round"/>
</g>
		<g transform="matrix(1 0 0 1 61.36 39.8697)">
<path style="stroke: none; stroke-width: 1; stroke-dasharray: none; stroke-linecap: butt; stroke-dashoffset: 0; stroke-linejoin: miter; stroke-miterlimit: 4; is-custom-font: none; font-file-url: none; fill: rgb(156,84,49); fill-rule: nonzero; opacity: 1;" transform=" translate(-884.86, -551.8697)" d="M 397.133913 796.716522 a 89.043478 89.043478 0 1 1 0 -178.086957 a 89.043478 89.043478 0 0 1 0 178.086957 z m 0 -311.652174 a 89.043478 89.043478 0 1 1 -0.044522 -178.042435 a 89.043478 89.043478 0 0 1 0.044522 178.042435 z M 1243.046957 841.238261 a 89.043478 89.043478 0 1 1 -0.044522 -178.042435 a 89.043478 89.043478 0 0 1 0.044522 178.042435 z m 133.565217 -400.695652 a 89.043478 89.043478 0 1 1 -0.044522 -178.042435 a 89.043478 89.043478 0 0 1 0.044522 178.042435 z M 931.394783 485.064348 a 89.043478 89.043478 0 1 1 -0.044522 -178.042435 a 89.043478 89.043478 0 0 1 0.044522 178.042435" stroke-linecap="round"/>
</g>
</g>
</g>
</svg>