<svg xmlns="http://www.w3.org/2000/svg" xmlns:xlink="http://www.w3.org/1999/xlink" version="1.1" width="1000" height="1000" viewBox="0 0 1000 1000" xml:space="preserve">
<desc>Created with Fabric.js 3.5.0</desc>
<defs>
</defs>
<rect x="0" y="0" width="100%" height="100%" fill="#ffffff"/>
<g transform="matrix(10.8705 0 0 6.3194 498.3656 500.8368)" id="356810">
<filter id="SVGID_181" y="-33.16%" height="166.32%" x="-42.79%" width="185.57999999999998%">
	<feGaussianBlur in="SourceAlpha" stdDeviation="5"/>
	<feOffset dx="10" dy="10" result="oBlur"/>
	<feFlood flood-color="rgb(0,0,0)" flood-opacity="1"/>
	<feComposite in2="oBlur" operator="in"/>
	<feMerge>
		<feMergeNode/>
		<feMergeNode in="SourceGraphic"/>
	</feMerge>
</filter>
<path style="stroke: rgb(11,15,18); stroke-width: 36; stroke-dasharray: none; stroke-linecap: butt; stroke-dashoffset: 0; stroke-linejoin: miter; stroke-miterlimit: 4; is-custom-font: none; font-file-url: none; fill: none; fill-rule: nonzero; opacity: 1;filter: url(#SVGID_181);" vector-effect="non-scaling-stroke" transform=" translate(-46.5001, -78.5)" d="M 2.6167 78.5 C 2.6167 57.2341 7.7391 38.064 15.8764 24.2946 C 24.0482 10.4665 34.9664 2.5 46.5001 2.5 C 58.0338 2.5 68.952 10.4665 77.1238 24.2946 C 85.2611 38.064 90.3835 57.2341 90.3835 78.5 C 90.3835 99.7659 85.2611 118.936 77.1238 132.705 C 68.952 146.533 58.0338 154.5 46.5001 154.5 C 34.9664 154.5 24.0482 146.533 15.8764 132.705 C 7.7391 118.936 2.6167 99.7659 2.6167 78.5 Z" stroke-linecap="round"/>
</g>
<g transform="matrix(7.3876 0 0 2.058 499.163 851.921)" id="63909">
<path style="stroke: none; stroke-width: 1; stroke-dasharray: none; stroke-linecap: butt; stroke-dashoffset: 0; stroke-linejoin: miter; stroke-miterlimit: 4; is-custom-font: none; font-file-url: none; fill: rgb(33,45,54); fill-rule: nonzero; opacity: 1;" vector-effect="non-scaling-stroke" transform=" translate(-67.5, -67.5)" d="M 67.5 135 C 104.779 135 135 104.779 135 67.5 C 135 30.2208 104.779 0 67.5 0 C 30.2208 0 0 30.2208 0 67.5 C 0 104.779 30.2208 135 67.5 135 Z" stroke-linecap="round"/>
</g>
<g transform="matrix(0.7337 0 0 0.7337 493.0064 330.4005)" id="370671">
<g style="" vector-effect="non-scaling-stroke">
		<g transform="matrix(1 0 0 1 0.5291 -0.0939)">
<path style="stroke: none; stroke-width: 1; stroke-dasharray: none; stroke-linecap: butt; stroke-dashoffset: 0; stroke-linejoin: miter; stroke-miterlimit: 4; is-custom-font: none; font-file-url: none; fill: rgb(122,171,241); fill-rule: nonzero; opacity: 1;" transform=" translate(-513.5291, -511.9061)" d="M 276.03711 447.974912 l -3.880309 -31.84529 a 10.971906 10.971906 0 0 1 3.21129 -9.098654 L 309.488044 374.650464 a 10.436691 10.436691 0 0 1 8.295832 -2.943682 l 23.28185 2.007056 a 10.704299 10.704299 0 0 1 8.96485 14.317 l -10.971906 26.760747 a 10.302888 10.302888 0 0 0 0.936626 10.03528 l 24.35228 36.662224 a 10.570495 10.570495 0 0 1 -1.605645 13.380374 l -33.986149 30.908663 a 10.302888 10.302888 0 0 0 -2.943682 4.147916 l -10.302888 28.232589 a 10.971906 10.971906 0 0 0 3.21129 11.908532 l 4.281719 3.478897 a 10.704299 10.704299 0 0 1 3.612701 10.436692 a 269.748334 269.748334 0 0 0 -5.485953 89.782307 A 1734.765451 1734.765451 0 0 1 147.184111 735.920554 a 10.704299 10.704299 0 0 0 1.605645 20.471972 c 59.542663 22.479028 219.170521 42.951 380.136417 41.612962 c 182.24069 -1.471841 300.656997 -17.126878 349.762969 -41.612962 c 9.633869 -4.816935 11.373318 -16.993075 1.204233 -20.471972 a 1097.993467 1097.993467 0 0 1 -178.226578 -83.894943 a 155.881354 155.881354 0 0 0 -16.859271 -94.599242 a 11.10571 11.10571 0 0 1 0 -9.232458 v -0.936626 A 10.704299 10.704299 0 0 0 682.399059 535.214948 l -30.373448 -25.021298 a 10.570495 10.570495 0 0 1 -3.746505 -6.556384 l -13.380373 -86.838625 a 10.436691 10.436691 0 0 0 -2.14086 -4.816934 l -25.957925 -33.584738 a 10.971906 10.971906 0 0 1 -0.802823 -12.042337 l 16.056449 -26.760747 a 10.704299 10.704299 0 0 0 -1.739449 -13.380374 l -99.951391 -97.409121 a 10.570495 10.570495 0 0 0 -10.704299 -2.542271 l -204.318307 64.493402 a 10.03528 10.03528 0 0 0 -6.288776 5.352149 L 240.846727 409.97465 a 10.436691 10.436691 0 0 0 0.802822 11.105711 l 22.612832 31.310074 a 6.288776 6.288776 0 0 0 11.774729 -4.415523 z" stroke-linecap="round"/>
</g>
		<g transform="matrix(1 0 0 1 0.1452 0.3192)">
<path style="stroke: none; stroke-width: 1; stroke-dasharray: none; stroke-linecap: butt; stroke-dashoffset: 0; stroke-linejoin: miter; stroke-miterlimit: 4; is-custom-font: none; font-file-url: none; fill: rgb(76,67,114); fill-rule: nonzero; opacity: 1;" transform=" translate(-513.1453, -512.3192)" d="M 513.672547 811.653469 c -161.634914 0 -313.63596 -21.14099 -369.83353 -42.549588 a 25.690318 25.690318 0 0 1 -16.993074 -23.683262 a 23.014243 23.014243 0 0 1 15.38743 -21.810009 a 1649.398667 1649.398667 0 0 0 163.775774 -77.204756 a 302.128838 302.128838 0 0 1 7.225402 -83.627336 l -3.077486 -2.542271 a 23.950869 23.950869 0 0 1 -7.091598 -26.760747 l 10.169084 -28.098785 a 25.957925 25.957925 0 0 1 6.422579 -9.500065 l 32.246701 -29.436822 l -23.014243 -34.655168 a 23.549458 23.549458 0 0 1 -2.14086 -22.612832 l 9.500065 -23.014243 l -18.331112 -1.739448 l -32.2467 31.310074 l 3.746504 30.641056 a 19.802953 19.802953 0 0 1 -35.591794 13.380374 l -22.612831 -31.310075 a 24.084673 24.084673 0 0 1 -2.007056 -25.021299 l 57.803214 -113.86698 a 24.084673 24.084673 0 0 1 14.317 -12.042336 L 505.644322 214.085979 a 23.950869 23.950869 0 0 1 24.084673 5.887365 l 99.148569 96.33869 a 23.950869 23.950869 0 0 1 3.880309 29.303019 l -14.986019 25.824121 l 24.486084 32.112897 a 22.345224 22.345224 0 0 1 4.683131 10.971907 l 13.380374 85.901999 l 29.436822 24.35228 a 24.084673 24.084673 0 0 1 6.82399 27.964981 a 173.944858 173.944858 0 0 1 18.732524 92.324579 a 1070.429897 1070.429897 0 0 0 168.325101 78.408989 a 22.612832 22.612832 0 0 1 15.788841 20.070561 a 26.760747 26.760747 0 0 1 -15.38743 25.155103 c -53.521495 26.760747 -176.353325 41.479158 -355.650333 42.950999 z m -355.115119 -65.697635 c 60.077878 20.605776 210.740886 40.141121 370.101137 38.936888 c 168.458905 -1.471841 288.748465 -14.986019 340.1291 -38.401673 a 1127.8317 1127.8317 0 0 1 -173.944858 -82.556906 l -8.429636 -4.950738 l 2.007056 -9.500065 a 144.909447 144.909447 0 0 0 -15.655037 -85.634392 a 23.549458 23.549458 0 0 1 -0.936626 -19.669149 l -28.767804 -23.817065 a 23.950869 23.950869 0 0 1 -8.429635 -14.718412 l -14.183196 -86.838625 l -25.42271 -32.380504 a 24.084673 24.084673 0 0 1 -1.739449 -26.760748 L 608.271789 334.509343 l -96.071083 -95.000654 l -201.776036 63.690579 L 254.2271 414.791585 l 5.619757 7.760617 v -4.683131 a 24.084673 24.084673 0 0 1 7.091599 -20.204364 l 34.119952 -33.183327 a 24.619888 24.619888 0 0 1 18.866327 -6.690187 l 23.281851 2.14086 a 24.084673 24.084673 0 0 1 20.07056 33.183327 l -10.436691 25.155102 l 23.549457 35.324187 a 23.950869 23.950869 0 0 1 -3.746504 31.176271 l -33.986149 31.042467 l -8.964851 25.288906 l 2.809879 2.274663 a 24.084673 24.084673 0 0 1 8.162028 23.683262 a 257.705998 257.705998 0 0 0 -6.021169 84.563962 l 1.739449 9.500065 l -8.563439 4.549327 a 1736.5049 1736.5049 0 0 1 -169.261728 80.282242 z m 169.529335 -203.247876 z m 23.281851 -123.233242 z M 285.403371 414.791585 z" stroke-linecap="round"/>
</g>
		<g transform="matrix(1 0 0 1 128.1876 52.3842)">
<path style="stroke: none; stroke-width: 1; stroke-dasharray: none; stroke-linecap: butt; stroke-dashoffset: 0; stroke-linejoin: miter; stroke-miterlimit: 4; is-custom-font: none; font-file-url: none; fill: rgb(231,103,124); fill-rule: nonzero; opacity: 1;" transform=" translate(-641.1875, -564.3842)" d="M 596.363256 567.86306 c 28.098785 -1.471841 58.070822 -3.746505 89.648504 -6.957794" stroke-linecap="round"/>
</g>
		<g transform="matrix(1 0 0 1 128.4551 52.3842)">
<path style="stroke: none; stroke-width: 1; stroke-dasharray: none; stroke-linecap: butt; stroke-dashoffset: 0; stroke-linejoin: miter; stroke-miterlimit: 4; is-custom-font: none; font-file-url: none; fill: rgb(76,67,114); fill-rule: nonzero; opacity: 1;" transform=" translate(-641.4551, -564.3842)" d="M 596.898471 577.229322 l -1.07043 -18.59872 c 29.570626 -1.605645 59.676467 -4.014112 89.247093 -7.091598 l 2.007056 18.59872 c -29.972037 3.21129 -60.345485 5.218346 -90.183719 7.091598 z" stroke-linecap="round"/>
</g>
		<g transform="matrix(1 0 0 1 -137.6806 50.7785)">
<path style="stroke: none; stroke-width: 1; stroke-dasharray: none; stroke-linecap: butt; stroke-dashoffset: 0; stroke-linejoin: miter; stroke-miterlimit: 4; is-custom-font: none; font-file-url: none; fill: rgb(231,103,124); fill-rule: nonzero; opacity: 1;" transform=" translate(-375.3195, -562.7785)" d="M 327.150137 557.82778 a 895.548412 895.548412 0 0 0 96.338691 9.901477" stroke-linecap="round"/>
</g>
		<g transform="matrix(1 0 0 1 -138.2157 50.8454)">
<path style="stroke: none; stroke-width: 1; stroke-dasharray: none; stroke-linecap: butt; stroke-dashoffset: 0; stroke-linejoin: miter; stroke-miterlimit: 4; is-custom-font: none; font-file-url: none; fill: rgb(76,67,114); fill-rule: nonzero; opacity: 1;" transform=" translate(-374.7843, -562.8454)" d="M 422.953613 577.095518 a 891.132889 891.132889 0 0 1 -97.409121 -10.03528 l 3.345094 -18.464916 a 855.541095 855.541095 0 0 0 95.134457 9.767673 z" stroke-linecap="round"/>
</g>
		<g transform="matrix(1 0 0 1 138.1559 152.5362)">
<path style="stroke: none; stroke-width: 1; stroke-dasharray: none; stroke-linecap: butt; stroke-dashoffset: 0; stroke-linejoin: miter; stroke-miterlimit: 4; is-custom-font: none; font-file-url: none; fill: rgb(231,103,124); fill-rule: nonzero; opacity: 1;" transform=" translate(-651.1559, -664.5363)" d="M 600.511172 676.779302 a 474.735659 474.735659 0 0 0 101.289429 -24.486084" stroke-linecap="round"/>
</g>
		<g transform="matrix(1 0 0 1 139.5608 152.737)">
<path style="stroke: none; stroke-width: 1; stroke-dasharray: none; stroke-linecap: butt; stroke-dashoffset: 0; stroke-linejoin: miter; stroke-miterlimit: 4; is-custom-font: none; font-file-url: none; fill: rgb(76,67,114); fill-rule: nonzero; opacity: 1;" transform=" translate(-652.5608, -664.737)" d="M 602.116817 686.01176 l -2.408467 -18.464916 a 463.094734 463.094734 0 0 0 99.416176 -24.084672 l 6.288776 17.528289 A 473.531426 473.531426 0 0 1 602.116817 686.01176 z" stroke-linecap="round"/>
</g>
		<g transform="matrix(1 0 0 1 -140.5573 153.0715)">
<path style="stroke: none; stroke-width: 1; stroke-dasharray: none; stroke-linecap: butt; stroke-dashoffset: 0; stroke-linejoin: miter; stroke-miterlimit: 4; is-custom-font: none; font-file-url: none; fill: rgb(231,103,124); fill-rule: nonzero; opacity: 1;" transform=" translate(-372.4427, -665.0715)" d="M 321.128969 654.166471 a 618.70848 618.70848 0 0 0 102.627466 21.810009" stroke-linecap="round"/>
</g>
		<g transform="matrix(1 0 0 1 -141.6277 153.2722)">
<path style="stroke: none; stroke-width: 1; stroke-dasharray: none; stroke-linecap: butt; stroke-dashoffset: 0; stroke-linejoin: miter; stroke-miterlimit: 4; is-custom-font: none; font-file-url: none; fill: rgb(76,67,114); fill-rule: nonzero; opacity: 1;" transform=" translate(-371.3723, -665.2722)" d="M 422.284594 685.342741 a 628.877564 628.877564 0 0 1 -104.366915 -22.345224 l 5.887365 -17.795897 a 623.926826 623.926826 0 0 0 101.021821 21.542402 z" stroke-linecap="round"/>
</g>
		<g transform="matrix(1 0 0 1 -1.1029 113.5376)">
<path style="stroke: none; stroke-width: 1; stroke-dasharray: none; stroke-linecap: butt; stroke-dashoffset: 0; stroke-linejoin: miter; stroke-miterlimit: 4; is-custom-font: none; font-file-url: none; fill: rgb(240,196,138); fill-rule: nonzero; opacity: 1;" transform=" translate(-511.8971, -625.5376)" d="M 424.425454 572.412387 v 108.514831 a 10.704299 10.704299 0 0 0 10.570495 10.704299 l 151.867242 1.605645 a 10.436691 10.436691 0 0 0 10.704299 -10.169084 a 896.485039 896.485039 0 0 0 0 -113.599373 a 10.570495 10.570495 0 0 0 -9.901477 -9.098654 a 903.041422 903.041422 0 0 0 -154.008101 1.605645 a 10.570495 10.570495 0 0 0 -9.232458 10.436691 z" stroke-linecap="round"/>
</g>
		<g transform="matrix(1 0 0 1 -0.5631 113.4926)">
<path style="stroke: none; stroke-width: 1; stroke-dasharray: none; stroke-linecap: butt; stroke-dashoffset: 0; stroke-linejoin: miter; stroke-miterlimit: 4; is-custom-font: none; font-file-url: none; fill: rgb(76,67,114); fill-rule: nonzero; opacity: 1;" transform=" translate(-512.4369, -625.4925)" d="M 587.264602 706.617536 l -151.867241 -1.605645 a 24.218476 24.218476 0 0 1 -23.817066 -24.084673 v -108.514831 A 24.218476 24.218476 0 0 1 431.78466 548.595322 A 910.802038 910.802038 0 0 1 588.736443 546.989677 a 23.817065 23.817065 0 0 1 22.211421 20.73958 a 873.6046 873.6046 0 0 1 0.802822 115.874036 a 23.817065 23.817065 0 0 1 -24.486084 23.014243 z m -149.191167 -28.366393 l 146.515092 1.605645 a 913.076702 913.076702 0 0 0 0 -107.042989 a 917.893636 917.893636 0 0 0 -146.381288 1.338037 z" stroke-linecap="round"/>
</g>
		<g transform="matrix(1 0 0 1 -2.6866 105.6381)">
<path style="stroke: none; stroke-width: 1; stroke-dasharray: none; stroke-linecap: butt; stroke-dashoffset: 0; stroke-linejoin: miter; stroke-miterlimit: 4; is-custom-font: none; font-file-url: none; fill: rgb(231,103,124); fill-rule: nonzero; opacity: 1;" transform=" translate(-510.3135, -617.6381)" d="M 334.509343 568.532079 s 15.788841 3.21129 80.282242 8.162028 v 89.5147 s -72.254018 -13.380374 -88.042859 -19.535346 a 388.030838 388.030838 0 0 1 7.760617 -78.141382 z M 606.53234 576.560303 s 65.296224 -4.28172 73.725859 -5.485953 a 147.184111 147.184111 0 0 1 12.577552 47.901738 a 86.30341 86.30341 0 0 1 0 26.760747 s -33.183327 10.704299 -52.718673 14.718411 s -33.584738 6.288776 -33.584738 6.288776 a 784.223703 784.223703 0 0 0 0 -90.183719 z" stroke-linecap="round"/>
</g>
</g>
</g>
</svg>