<svg xmlns="http://www.w3.org/2000/svg" xmlns:xlink="http://www.w3.org/1999/xlink" version="1.1" width="1000" height="1000" viewBox="0 0 1000 1000" xml:space="preserve">
<desc>Created with Fabric.js 3.5.0</desc>
<defs>
</defs>
<rect x="0" y="0" width="100%" height="100%" fill="#ffffff"/>
<g transform="matrix(10.8705 0 0 6.3194 498.3656 500.8368)" id="356810">
<filter id="SVGID_183" y="-33.16%" height="166.32%" x="-42.79%" width="185.57999999999998%">
	<feGaussianBlur in="SourceAlpha" stdDeviation="5"/>
	<feOffset dx="10" dy="10" result="oBlur"/>
	<feFlood flood-color="rgb(0,0,0)" flood-opacity="1"/>
	<feComposite in2="oBlur" operator="in"/>
	<feMerge>
		<feMergeNode/>
		<feMergeNode in="SourceGraphic"/>
	</feMerge>
</filter>
<path style="stroke: rgb(11,15,18); stroke-width: 36; stroke-dasharray: none; stroke-linecap: butt; stroke-dashoffset: 0; stroke-linejoin: miter; stroke-miterlimit: 4; is-custom-font: none; font-file-url: none; fill: none; fill-rule: nonzero; opacity: 1;filter: url(#SVGID_183);" vector-effect="non-scaling-stroke" transform=" translate(-46.5001, -78.5)" d="M 2.6167 78.5 C 2.6167 57.2341 7.7391 38.064 15.8764 24.2946 C 24.0482 10.4665 34.9664 2.5 46.5001 2.5 C 58.0338 2.5 68.952 10.4665 77.1238 24.2946 C 85.2611 38.064 90.3835 57.2341 90.3835 78.5 C 90.3835 99.7659 85.2611 118.936 77.1238 132.705 C 68.952 146.533 58.0338 154.5 46.5001 154.5 C 34.9664 154.5 24.0482 146.533 15.8764 132.705 C 7.7391 118.936 2.6167 99.7659 2.6167 78.5 Z" stroke-linecap="round"/>
</g>
<g transform="matrix(7.3876 0 0 2.058 499.163 851.921)" id="63909">
<path style="stroke: none; stroke-width: 1; stroke-dasharray: none; stroke-linecap: butt; stroke-dashoffset: 0; stroke-linejoin: miter; stroke-miterlimit: 4; is-custom-font: none; font-file-url: none; fill: rgb(33,45,54); fill-rule: nonzero; opacity: 1;" vector-effect="non-scaling-stroke" transform=" translate(-67.5, -67.5)" d="M 67.5 135 C 104.779 135 135 104.779 135 67.5 C 135 30.2208 104.779 0 67.5 0 C 30.2208 0 0 30.2208 0 67.5 C 0 104.779 30.2208 135 67.5 135 Z" stroke-linecap="round"/>
</g>
<g transform="matrix(0.6836 0 0 0.6836 470.9756 376.636)" id="313175">
<g style="" vector-effect="non-scaling-stroke">
		<g transform="matrix(1 0 0 1 -50.6008 -37.0826)">
<path style="stroke: none; stroke-width: 1; stroke-dasharray: none; stroke-linecap: butt; stroke-dashoffset: 0; stroke-linejoin: miter; stroke-miterlimit: 4; is-custom-font: none; font-file-url: none; fill: rgb(255,255,255); fill-rule: nonzero; opacity: 1;" transform=" translate(-461.3992, -474.9174)" d="M 167.4 663 C 95.7 537.7 137 361 271.3 248.3 c 124.8 -104.7 290 -120.7 401.8 -48.4 c 2.4 -2.6 4.9 -5.1 7.7 -7.5 c 27.6 -23.1 65.8 -23 85.3 0.3 s 13 60.9 -14.5 84.1 l -1.5 1.2 C 829 403.7 789 586.1 651.5 701.5 c -127.8 107.3 -298.2 121.5 -410 42.9 c -0.8 0.8 -1.7 1.5 -2.5 2.2 c -27.6 23.1 -65.8 23 -85.3 -0.3 c -19.3 -23 -13.1 -60.2 13.7 -83.3 z" stroke-linecap="round"/>
</g>
		<g transform="matrix(1 0 0 1 -50.0008 3.9174)">
<path style="stroke: none; stroke-width: 1; stroke-dasharray: none; stroke-linecap: butt; stroke-dashoffset: 0; stroke-linejoin: miter; stroke-miterlimit: 4; is-custom-font: none; font-file-url: none; fill: rgb(255,226,42); fill-rule: nonzero; opacity: 1;" transform=" translate(-461.9992, -515.9174)" d="M 168 704 c -71.7 -125.3 -30.4 -302 103.9 -414.7 c 124.8 -104.7 290 -120.7 401.8 -48.4 c 2.4 -2.6 4.9 -5.1 7.7 -7.5 c 27.6 -23.1 65.8 -23 85.3 0.3 s 13 60.9 -14.5 84.1 l -1.5 1.2 c 78.9 125.7 38.9 308.1 -98.6 423.5 c -127.8 107.3 -298.2 121.5 -410 42.9 c -0.8 0.8 -1.7 1.5 -2.5 2.2 c -27.6 23.1 -65.8 23 -85.3 -0.3 c -19.3 -23 -13.1 -60.2 13.7 -83.3 z" stroke-linecap="round"/>
</g>
		<g transform="matrix(1 0 0 1 -36.1775 27.3055)">
<path style="stroke: none; stroke-width: 1; stroke-dasharray: none; stroke-linecap: butt; stroke-dashoffset: 0; stroke-linejoin: miter; stroke-miterlimit: 4; is-custom-font: none; font-file-url: none; fill: rgb(255,181,68); fill-rule: nonzero; opacity: 1;" transform=" translate(-475.8225, -539.3056)" d="M 176.5 816.1 c 16 -12.7 43.4 -22.4 78.3 -22.3 c 72.8 0.2 74.8 132.2 442.8 -60.8 c 158.3 -83 66.1 -365.6 67.7 -411.8 c 0.8 -23.4 20 -139 -15.7 -43.2 c -30.8 82.6 -92.5 265.7 -173.4 341.5 c -192.3 180.1 -485.7 94.1 -399.7 196.6 z" stroke-linecap="round"/>
</g>
		<g transform="matrix(1 0 0 1 -49.8654 3.8707)">
<path style="stroke: none; stroke-width: 1; stroke-dasharray: none; stroke-linecap: butt; stroke-dashoffset: 0; stroke-linejoin: miter; stroke-miterlimit: 4; is-custom-font: none; font-file-url: none; fill: rgb(51,51,51); fill-rule: nonzero; opacity: 1;" transform=" translate(-462.1346, -515.8706)" d="M 408.2 846.5 c -60.8 0 -118.3 -16.3 -165.4 -47.1 c -31.9 23.8 -74.6 22 -97.1 -4.9 c -11.5 -13.7 -16.1 -31.7 -13 -50.7 c 2.5 -15.4 10 -30.1 21.3 -42 c -32.8 -62.1 -40.7 -137.2 -22.2 -212.6 c 19.3 -78.8 66.5 -152.9 132.9 -208.5 c 123.2 -103.4 289.3 -125 407.5 -54 l 2.1 -1.8 c 15.3 -12.8 34 -19.9 52.7 -19.9 h 0.2 c 19.5 0.1 36.6 7.7 48.2 21.6 c 11.6 13.8 16.2 32 12.9 51.2 c -2.8 16.1 -10.9 31.3 -23 43.4 c 76.1 131.5 31.7 314.6 -105.8 429.9 c -32.1 27 -67.5 48.7 -105.1 64.7 c -36.4 15.5 -74.1 25.2 -112 29 c -11.5 1.1 -22.9 1.7 -34.2 1.7 z M 241.3 771 l 7.4 5.2 c 52.4 36.8 120.3 53.3 191.4 46.3 c 72.6 -7.1 145.3 -38.6 204.9 -88.6 c 64.3 -53.9 109.3 -125.6 126.7 -201.8 c 17.2 -75 6.4 -148.6 -30.4 -207.1 l -5.3 -8.5 l 7.9 -6.3 c 0.4 -0.3 0.8 -0.7 1.2 -1 c 11.3 -9.5 18.8 -22 21.1 -35.3 c 2.2 -12.6 -0.6 -24.3 -7.9 -33 c -7.3 -8.7 -18.3 -13.5 -31.1 -13.5 h -0.2 c -13.4 0 -27 5.2 -38.2 14.6 c -2.4 2 -4.6 4.1 -6.6 6.4 l -6.4 7.1 l -8 -5.2 c -52.5 -33.9 -119.5 -48.3 -188.7 -40.5 c -71.8 8.2 -140.9 38.6 -199.8 88 c -62.7 52.6 -107.3 122.5 -125.5 196.7 c -17.9 72.9 -9.3 145.3 24.1 203.8 l 4.6 8 l -7 6.1 c -22.1 19.1 -27.7 49.4 -12.4 67.6 c 15.5 18.5 46.7 18 69.5 -1.1 c 0.7 -0.6 1.5 -1.3 2.2 -1.9 l 6.5 -6 z" stroke-linecap="round"/>
</g>
		<g transform="matrix(1 0 0 1 5.9 -287.3819)">
<path style="stroke: none; stroke-width: 1; stroke-dasharray: none; stroke-linecap: butt; stroke-dashoffset: 0; stroke-linejoin: miter; stroke-miterlimit: 4; is-custom-font: none; font-file-url: none; fill: rgb(140,202,1); fill-rule: nonzero; opacity: 1;" transform=" translate(-517.9, -224.6181)" d="M 509 297.4 c -56 -6.9 -103.9 -36.8 -143.6 -89.8 c -0.8 -1 -0.6 -2.5 0.4 -3.3 c 51.4 -41.8 105 -59.3 161 -52.5 c 56 6.9 103.9 36.8 143.6 89.8 c 0.8 1 0.6 2.5 -0.4 3.3 c -51.3 41.9 -105 59.4 -161 52.5 z" stroke-linecap="round"/>
</g>
		<g transform="matrix(1 0 0 1 5.9 -287.3598)">
<path style="stroke: none; stroke-width: 1; stroke-dasharray: none; stroke-linecap: butt; stroke-dashoffset: 0; stroke-linejoin: miter; stroke-miterlimit: 4; is-custom-font: none; font-file-url: none; fill: rgb(51,51,51); fill-rule: nonzero; opacity: 1;" transform=" translate(-517.9, -224.6402)" d="M 532.4 310.1 c -8.2 0 -16.5 -0.5 -24.8 -1.5 c -58.9 -7.2 -109.8 -38.9 -151.2 -94.3 c -4.4 -5.9 -3.4 -14.1 2.3 -18.7 c 53.6 -43.7 110.6 -62.1 169.5 -54.9 c 58.9 7.2 109.8 38.9 151.2 94.3 c 4.4 5.9 3.4 14.1 -2.3 18.7 c -46 37.5 -94.6 56.4 -144.7 56.4 z M 379.7 207.7 c 36.6 46 80.5 72.4 130.7 78.6 s 99.2 -8.9 145.8 -44.7 c -36.6 -46 -80.5 -72.4 -130.7 -78.6 c -50.1 -6.1 -99.2 8.9 -145.8 44.7 z" stroke-linecap="round"/>
</g>
		<g transform="matrix(1 0 0 1 85.5768 -277.2188)">
<path style="stroke: none; stroke-width: 1; stroke-dasharray: none; stroke-linecap: butt; stroke-dashoffset: 0; stroke-linejoin: miter; stroke-miterlimit: 4; is-custom-font: none; font-file-url: none; fill: rgb(51,51,51); fill-rule: nonzero; opacity: 1;" transform=" translate(-597.5767, -234.7811)" d="M 613.2 255.2 c -4.2 0 -8.2 -0.2 -12.1 -0.7 c -15 -1.7 -38.3 -7.7 -71.4 -18.2 c -5.9 -1.9 -9.2 -8.2 -7.3 -14.1 c 1.9 -5.9 8.2 -9.2 14.1 -7.3 c 31.2 9.9 53.8 15.8 67.1 17.3 c 14.9 1.7 33.5 -0.8 55.1 -7.5 c 5.9 -1.8 12.2 1.5 14.1 7.4 c 1.8 5.9 -1.5 12.2 -7.4 14.1 c -19.3 6 -36.8 9 -52.2 9 z" stroke-linecap="round"/>
</g>
		<g transform="matrix(1 0 0 1 161.7 126)">
<path style="stroke: none; stroke-width: 1; stroke-dasharray: none; stroke-linecap: butt; stroke-dashoffset: 0; stroke-linejoin: miter; stroke-miterlimit: 4; is-custom-font: none; font-file-url: none; fill: rgb(255,197,68); fill-rule: nonzero; opacity: 1;" transform=" translate(-673.7, -638)" d="M 673.7 638 m -235.7 0 a 235.7 235.7 0 1 0 471.4 0 a 235.7 235.7 0 1 0 -471.4 0 Z" stroke-linecap="round"/>
</g>
		<g transform="matrix(1 0 0 1 161.7 126)">
<path style="stroke: none; stroke-width: 1; stroke-dasharray: none; stroke-linecap: butt; stroke-dashoffset: 0; stroke-linejoin: miter; stroke-miterlimit: 4; is-custom-font: none; font-file-url: none; fill: rgb(51,51,51); fill-rule: nonzero; opacity: 1;" transform=" translate(-673.7, -638)" d="M 673.7 884.9 c -66 0 -128 -25.7 -174.6 -72.3 C 452.5 766 426.8 704 426.8 638 s 25.7 -128 72.3 -174.6 s 108.6 -72.3 174.6 -72.3 s 128 25.7 174.6 72.3 c 46.7 46.7 72.3 108.7 72.3 174.6 s -25.7 128 -72.3 174.6 c -46.6 46.6 -108.6 72.3 -174.6 72.3 z m 0 -471.3 C 550 413.6 449.3 514.3 449.3 638 S 550 862.4 673.7 862.4 S 898.1 761.7 898.1 638 S 797.5 413.6 673.7 413.6 z" stroke-linecap="round"/>
</g>
		<g transform="matrix(1 0 0 1 161.7 127.1)">
<path style="stroke: none; stroke-width: 1; stroke-dasharray: none; stroke-linecap: butt; stroke-dashoffset: 0; stroke-linejoin: miter; stroke-miterlimit: 4; is-custom-font: none; font-file-url: none; fill: rgb(255,226,42); fill-rule: nonzero; opacity: 1;" transform=" translate(-673.7, -639.1)" d="M 673.7 639.1 m -180.5 0 a 180.5 180.5 0 1 0 361 0 a 180.5 180.5 0 1 0 -361 0 Z" stroke-linecap="round"/>
</g>
		<g transform="matrix(1 0 0 1 161.7 127.1)">
<path style="stroke: none; stroke-width: 1; stroke-dasharray: none; stroke-linecap: butt; stroke-dashoffset: 0; stroke-linejoin: miter; stroke-miterlimit: 4; is-custom-font: none; font-file-url: none; fill: rgb(255,255,255); fill-rule: nonzero; opacity: 1;" transform=" translate(-673.7, -639.1)" d="M 673.7 830.9 c -105.8 0 -191.8 -86 -191.8 -191.8 s 86 -191.8 191.8 -191.8 s 191.8 86 191.8 191.8 s -86 191.8 -191.8 191.8 z m 0 -361.1 c -93.3 0 -169.3 75.9 -169.3 169.3 s 75.9 169.3 169.3 169.3 S 843 732.5 843 639.1 s -75.9 -169.3 -169.3 -169.3 z" stroke-linecap="round"/>
</g>
		<g transform="matrix(1 0 0 1 158.05 127.75)">
<path style="stroke: none; stroke-width: 1; stroke-dasharray: none; stroke-linecap: butt; stroke-dashoffset: 0; stroke-linejoin: miter; stroke-miterlimit: 4; is-custom-font: none; font-file-url: none; fill: rgb(255,255,255); fill-rule: nonzero; opacity: 1;" transform=" translate(-670.05, -639.75)" d="M 495.6 628.5 h 348.9 V 651 H 495.6 z" stroke-linecap="round"/>
</g>
		<g transform="matrix(1 0 0 1 162.0655 128.7365)">
<path style="stroke: none; stroke-width: 1; stroke-dasharray: none; stroke-linecap: butt; stroke-dashoffset: 0; stroke-linejoin: miter; stroke-miterlimit: 4; is-custom-font: none; font-file-url: none; fill: rgb(255,255,255); fill-rule: nonzero; opacity: 1;" transform=" translate(-674.0655, -640.7365)" d="M 542.757 756.135 l 246.707 -246.707 l 15.91 15.91 l -246.707 246.707 z" stroke-linecap="round"/>
</g>
		<g transform="matrix(1 0 0 1 162.0655 128.736)">
<path style="stroke: none; stroke-width: 1; stroke-dasharray: none; stroke-linecap: butt; stroke-dashoffset: 0; stroke-linejoin: miter; stroke-miterlimit: 4; is-custom-font: none; font-file-url: none; fill: rgb(255,255,255); fill-rule: nonzero; opacity: 1;" transform=" translate(-674.0655, -640.736)" d="M 542.757 525.337 l 15.91 -15.91 l 246.707 246.708 l -15.91 15.91 z" stroke-linecap="round"/>
</g>
		<g transform="matrix(1 0 0 1 161.15 123.45)">
<path style="stroke: none; stroke-width: 1; stroke-dasharray: none; stroke-linecap: butt; stroke-dashoffset: 0; stroke-linejoin: miter; stroke-miterlimit: 4; is-custom-font: none; font-file-url: none; fill: rgb(255,255,255); fill-rule: nonzero; opacity: 1;" transform=" translate(-673.15, -635.45)" d="M 661.9 461 h 22.5 v 348.9 h -22.5 z" stroke-linecap="round"/>
</g>
</g>
</g>
</svg>