<svg xmlns="http://www.w3.org/2000/svg" xmlns:xlink="http://www.w3.org/1999/xlink" version="1.1" width="1000" height="1000" viewBox="0 0 1000 1000" xml:space="preserve">
<desc>Created with Fabric.js 3.5.0</desc>
<defs>
</defs>
<rect x="0" y="0" width="100%" height="100%" fill="#ffffff"/>
<g transform="matrix(10.8705 0 0 6.3194 498.3656 500.8368)" id="356810">
<filter id="SVGID_191" y="-33.16%" height="166.32%" x="-42.79%" width="185.57999999999998%">
	<feGaussianBlur in="SourceAlpha" stdDeviation="5"/>
	<feOffset dx="10" dy="10" result="oBlur"/>
	<feFlood flood-color="rgb(0,0,0)" flood-opacity="1"/>
	<feComposite in2="oBlur" operator="in"/>
	<feMerge>
		<feMergeNode/>
		<feMergeNode in="SourceGraphic"/>
	</feMerge>
</filter>
<path style="stroke: rgb(11,15,18); stroke-width: 36; stroke-dasharray: none; stroke-linecap: butt; stroke-dashoffset: 0; stroke-linejoin: miter; stroke-miterlimit: 4; is-custom-font: none; font-file-url: none; fill: none; fill-rule: nonzero; opacity: 1;filter: url(#SVGID_191);" vector-effect="non-scaling-stroke" transform=" translate(-46.5001, -78.5)" d="M 2.6167 78.5 C 2.6167 57.2341 7.7391 38.064 15.8764 24.2946 C 24.0482 10.4665 34.9664 2.5 46.5001 2.5 C 58.0338 2.5 68.952 10.4665 77.1238 24.2946 C 85.2611 38.064 90.3835 57.2341 90.3835 78.5 C 90.3835 99.7659 85.2611 118.936 77.1238 132.705 C 68.952 146.533 58.0338 154.5 46.5001 154.5 C 34.9664 154.5 24.0482 146.533 15.8764 132.705 C 7.7391 118.936 2.6167 99.7659 2.6167 78.5 Z" stroke-linecap="round"/>
</g>
<g transform="matrix(7.3876 0 0 2.058 499.163 851.921)" id="63909">
<path style="stroke: none; stroke-width: 1; stroke-dasharray: none; stroke-linecap: butt; stroke-dashoffset: 0; stroke-linejoin: miter; stroke-miterlimit: 4; is-custom-font: none; font-file-url: none; fill: rgb(33,45,54); fill-rule: nonzero; opacity: 1;" vector-effect="non-scaling-stroke" transform=" translate(-67.5, -67.5)" d="M 67.5 135 C 104.779 135 135 104.779 135 67.5 C 135 30.2208 104.779 0 67.5 0 C 30.2208 0 0 30.2208 0 67.5 C 0 104.779 30.2208 135 67.5 135 Z" stroke-linecap="round"/>
</g>
<g transform="matrix(0.6836 0 0 0.6836 513.0656 393.5446)" id="443228">
<g style="" vector-effect="non-scaling-stroke">
		<g transform="matrix(1 0 0 1 -1.05 339.15)">
<path style="stroke: none; stroke-width: 1; stroke-dasharray: none; stroke-linecap: butt; stroke-dashoffset: 0; stroke-linejoin: miter; stroke-miterlimit: 4; is-custom-font: none; font-file-url: none; fill: rgb(244,133,71); fill-rule: nonzero; opacity: 1;" transform=" translate(-510.95, -851.15)" d="M 453.3 896.5 c -15 0 -27.2 -12.2 -27.2 -27.2 V 833 c 0 -15 12.2 -27.2 27.2 -27.2 h 115.3 c 15 0 27.2 12.2 27.2 27.2 v 36.3 c 0 15 -12.2 27.2 -27.2 27.2 H 453.3 z" stroke-linecap="round"/>
</g>
		<g transform="matrix(1 0 0 1 -1.05 339.05)">
<path style="stroke: none; stroke-width: 1; stroke-dasharray: none; stroke-linecap: butt; stroke-dashoffset: 0; stroke-linejoin: miter; stroke-miterlimit: 4; is-custom-font: none; font-file-url: none; fill: rgb(38,38,38); fill-rule: nonzero; opacity: 1;" transform=" translate(-510.95, -851.05)" d="M 568.5 818.3 c 8.1 0 14.7 6.6 14.7 14.7 v 36.3 c 0 8.1 -6.6 14.7 -14.7 14.7 H 453.3 c -8.1 0 -14.7 -6.6 -14.7 -14.7 V 833 c 0 -8.1 6.6 -14.7 14.7 -14.7 h 115.2 m 0 -25.2 H 453.3 c -22 0 -39.8 17.9 -39.8 39.8 v 36.3 c 0 22 17.9 39.8 39.8 39.8 h 115.3 c 22 0 39.8 -17.9 39.8 -39.8 V 833 c 0 -22 -17.9 -39.9 -39.9 -39.9 z" stroke-linecap="round"/>
</g>
		<g transform="matrix(1 0 0 1 0.15 154.45)">
<path style="stroke: none; stroke-width: 1; stroke-dasharray: none; stroke-linecap: butt; stroke-dashoffset: 0; stroke-linejoin: miter; stroke-miterlimit: 4; is-custom-font: none; font-file-url: none; fill: rgb(244,133,71); fill-rule: nonzero; opacity: 1;" transform=" translate(-512.15, -666.45)" d="M 180.3 491.3 s 8.5 350.3 332.9 350.3 S 844 491.3 844 491.3 H 180.3 z" stroke-linecap="round"/>
</g>
		<g transform="matrix(1 0 0 1 0.0999 154.45)">
<path style="stroke: none; stroke-width: 1; stroke-dasharray: none; stroke-linecap: butt; stroke-dashoffset: 0; stroke-linejoin: miter; stroke-miterlimit: 4; is-custom-font: none; font-file-url: none; fill: rgb(38,38,38); fill-rule: nonzero; opacity: 1;" transform=" translate(-512.0999, -666.45)" d="M 513.2 862.5 c -340.9 0 -353.8 -367 -353.9 -370.7 c -0.1 -5.6 2 -11.1 5.9 -15.1 c 3.9 -4 9.3 -6.3 15 -6.3 H 844 c 5.6 0 11 2.3 14.9 6.3 c 3.9 4 6.1 9.4 6 15.1 c 0 3.6 -10.7 370.7 -351.7 370.7 z M 202.8 512.2 c 7.6 73.8 52.3 308.4 310.4 308.4 c 125.8 0 216 -54.9 268.2 -163.3 c 27.6 -57.4 37 -115 40.1 -145.1 H 202.8 z" stroke-linecap="round"/>
</g>
		<g transform="matrix(1 0 0 1 0 -28.6)">
<path style="stroke: none; stroke-width: 1; stroke-dasharray: none; stroke-linecap: butt; stroke-dashoffset: 0; stroke-linejoin: miter; stroke-miterlimit: 4; is-custom-font: none; font-file-url: none; fill: rgb(204,102,58); fill-rule: nonzero; opacity: 1;" transform=" translate(-512, -483.4)" d="M 201 483.4 a 311 121.1 0 1 0 622 0 a 311 121.1 0 1 0 -622 0 Z" stroke-linecap="round"/>
</g>
		<g transform="matrix(1 0 0 1 0 6.25)">
<path style="stroke: none; stroke-width: 1; stroke-dasharray: none; stroke-linecap: butt; stroke-dashoffset: 0; stroke-linejoin: miter; stroke-miterlimit: 4; is-custom-font: none; font-file-url: none; fill: rgb(237,155,58); fill-rule: nonzero; opacity: 1;" transform=" translate(-512, -518.25)" d="M 512 397.2 c -155.4 0 -284.1 44.4 -307.3 102.3 c -2.1 9.5 -3.1 17.8 -3.5 22.6 c 5.3 65.1 142.3 117.2 310.8 117.2 c 168.3 0 305.3 -52 310.8 -117 c -0.2 -6.6 -1.1 -13.1 -2.4 -19.6 c -19.6 -59.5 -150.1 -105.5 -308.4 -105.5 z" stroke-linecap="round"/>
</g>
		<g transform="matrix(1 0 0 1 0.7 6.25)">
<path style="stroke: none; stroke-width: 1; stroke-dasharray: none; stroke-linecap: butt; stroke-dashoffset: 0; stroke-linejoin: miter; stroke-miterlimit: 4; is-custom-font: none; font-file-url: none; fill: rgb(255,206,153); fill-rule: nonzero; opacity: 1;" transform=" translate(-512.7, -518.25)" d="M 512.7 397.2 c -155.4 0 -284.1 44.4 -307.3 102.3 c -2.1 9.5 -3.1 17.8 -3.5 22.6 c 5.3 65.1 142.3 117.2 310.8 117.2 c 168.3 0 305.3 -52 310.8 -117 c -0.2 -6.6 -1.1 -13.1 -2.4 -19.6 c -19.5 -59.5 -150.1 -105.5 -308.4 -105.5 z" stroke-linecap="round"/>
</g>
		<g transform="matrix(1 0 0 1 49.55 9.906)">
<path style="stroke: none; stroke-width: 1; stroke-dasharray: none; stroke-linecap: butt; stroke-dashoffset: 0; stroke-linejoin: miter; stroke-miterlimit: 4; is-custom-font: none; font-file-url: none; fill: rgb(216,97,37); fill-rule: nonzero; opacity: 1;" transform=" translate(-561.55, -521.906)" d="M 375.2 522.9 s 14.2 -21.5 17.9 -20.8 s 19 5.6 19 5.6 l 4.1 18.7 c 0.1 0.1 -32.9 10.3 -41 -3.5 z M 566.8 512.3 s 7.4 -11.2 9.3 -10.8 c 1.9 0.4 9.9 2.9 9.9 2.9 l 2.1 9.7 c 0.1 0.1 -17.1 5.4 -21.3 -1.8 z M 661 571.3 s 3.2 -27 6.9 -26.3 c 3.7 0.7 19 5.6 19 5.6 l 4.1 18.7 c 0 0.1 -22 15.8 -30 2 z M 723.5 490.3 s 6.1 -14 8.4 -13 c 2.2 0.9 11.7 6 11.7 6 l 4.3 13.8 s -18.3 3.9 -24.4 -6.8 z M 467.2 601.2 s 14.2 -21.5 17.9 -20.8 s 19 5.6 19 5.6 l 4.1 18.7 c 0.1 0.1 -32.9 10.3 -41 -3.5 z M 642.6 446.1 s 7.4 -11.1 9.3 -10.7 c 1.9 0.4 9.9 2.9 9.9 2.9 l 2.1 9.7 c 0 -0.1 -17.1 5.2 -21.3 -1.9 z M 621.9 477.6 s 11.3 -17 14.2 -16.4 s 15.1 4.5 15.1 4.5 l 3.2 14.8 s -26.1 8.1 -32.5 -2.9 z" stroke-linecap="round"/>
</g>
		<g transform="matrix(1 0 0 1 -78.2957 43.2232)">
<path style="stroke: none; stroke-width: 1; stroke-dasharray: none; stroke-linecap: butt; stroke-dashoffset: 0; stroke-linejoin: miter; stroke-miterlimit: 4; is-custom-font: none; font-file-url: none; fill: rgb(91,206,126); fill-rule: nonzero; opacity: 1;" transform=" translate(-433.7043, -555.2231)" d="M 592.1 627.5 s 5.8 0 17.9 -3.9 s 10.2 7.3 10.2 7.3 l -21.8 12.6 l -6.3 -16 z M 361.1 585.1 s 5.8 0 17.9 -3.9 c 12.1 -3.9 10.2 7.3 10.2 7.3 l -21.8 12.6 l -6.3 -16 z M 406.5 470.1 s 5.8 0 17.9 -2.6 s 10.2 4.8 10.2 4.8 l -21.8 8.3 l -6.3 -10.5 z M 247.1 495.7 l 17.7 0.7 l 10.1 -0.7 l -23.8 10.4 z" stroke-linecap="round"/>
</g>
		<g transform="matrix(1 0 0 1 -122.3019 34.9087)">
<path style="stroke: none; stroke-width: 1; stroke-dasharray: none; stroke-linecap: butt; stroke-dashoffset: 0; stroke-linejoin: miter; stroke-miterlimit: 4; is-custom-font: none; font-file-url: none; fill: rgb(255,255,255); fill-rule: nonzero; opacity: 1;" transform=" translate(-389.6981, -546.9087)" d="M 313.1 459 c 1.6 -0.3 25.9 -7.9 25.9 -7.9 l 7.8 12.8 l -27.2 7.5 l -6.5 -12.4 z M 459.8 624.3 c -1.3 0.9 0.2 2.2 2.5 2.1 c 2.8 -0.1 4.1 1.7 1.6 2.4 c -1.9 0.5 -1.6 1.9 0.6 2.3 c 2.6 0.4 2.3 2.3 -0.4 2.4 c -2.2 0.1 -3 1.4 -1.4 2.1 c 2.1 0.9 0.2 2.4 -2.4 2 c -2.1 -0.3 -4 0.7 -3 1.6 c 1.2 1.2 -1.8 2.2 -3.9 1.4 c -1.7 -0.7 -4.3 -0.1 -4.2 0.9 c 0.1 1.3 -3.6 1.7 -4.9 0.5 c -1 -0.9 -3.9 -0.9 -4.7 0 c -1 1.2 -4.9 0.8 -5 -0.5 c -0.1 -1 -2.9 -1.6 -4.5 -0.9 c -2 0.9 -5.4 -0.2 -4.4 -1.4 c 0.8 -1 -1.4 -2 -3.5 -1.7 c -2.7 0.4 -5.1 -1.2 -3 -2.1 c 1.7 -0.7 0.5 -2.1 -1.9 -2.2 c -3 -0.1 -3.8 -2.1 -1 -2.5 c 2.3 -0.3 2.4 -1.8 0.1 -2.4 c -2.8 -0.7 -1.8 -2.6 1.3 -2.4 c 2.5 0.2 3.8 -1.1 2.2 -2.1 c -2 -1.2 0.6 -2.7 3.4 -1.9 c 2.2 0.6 4.6 -0.2 4 -1.4 c -0.9 -1.5 3 -2.2 4.9 -1 c 1.5 1 4.6 0.7 4.9 -0.4 c 0.5 -1.4 4.7 -1.4 5.4 0.1 c 0.6 1.2 3.6 1.5 4.9 0.6 c 1.6 -1.2 5.4 -0.3 4.9 1.1 c -0.4 1.1 2.1 2 4 1.5 c 2.4 -0.7 5.2 0.8 3.5 1.9 z" stroke-linecap="round"/>
</g>
		<g transform="matrix(1 0 0 1 -72.6364 119.0248)">
<path style="stroke: none; stroke-width: 1; stroke-dasharray: none; stroke-linecap: butt; stroke-dashoffset: 0; stroke-linejoin: miter; stroke-miterlimit: 4; is-custom-font: none; font-file-url: none; fill: rgb(255,148,214); fill-rule: nonzero; opacity: 1;" transform=" translate(-439.3637, -631.0248)" d="M 430.4 636.4 c -2.6 -1.3 -4.4 -2.9 -5.1 -4.6 c -0.8 -2 0.1 -4 2.7 -5.7 c 2.5 -1.7 6.3 -2.8 10.6 -3.1 c 3.5 -0.3 7 0.1 9.9 1.1 c 2.8 1 4.6 2.4 5.1 4.1 c 0.4 1.3 -0.3 2.7 -2 3.8 c -1.7 1.1 -4.2 1.8 -7 2.1 c -4.9 0.4 -9.5 -1.1 -10.3 -3.4 c -0.3 -0.9 0.1 -1.9 1.3 -2.7 c 1.2 -0.8 3 -1.3 5 -1.5 c 1 -0.1 1.9 0.2 2.1 0.7 c 0.2 0.5 -0.5 0.9 -1.5 1 c -1.1 0.1 -2 0.4 -2.6 0.8 c -0.6 0.4 -0.9 0.9 -0.7 1.4 c 0.5 1.4 3.3 2.3 6.2 2.1 c 1.9 -0.2 3.6 -0.7 4.7 -1.4 s 1.6 -1.6 1.3 -2.5 c -0.8 -2.5 -5.7 -4.2 -10.9 -3.8 c -3.3 0.3 -6.2 1.1 -8.2 2.4 c -1.9 1.3 -2.7 2.9 -2.1 4.4 c 0.8 2 3.1 3.7 6.5 4.8 c 3.4 1.1 7.5 1.5 11.6 1.1 c 0.9 -0.1 1.8 0.2 2 0.6 c 0.1 0.4 -0.5 0.9 -1.4 0.9 c -5 0.4 -10 0 -14.2 -1.4 c -1.1 -0.3 -2.1 -0.7 -3 -1.2 z" stroke-linecap="round"/>
</g>
		<g transform="matrix(1 0 0 1 78.7347 47.0898)">
<path style="stroke: none; stroke-width: 1; stroke-dasharray: none; stroke-linecap: butt; stroke-dashoffset: 0; stroke-linejoin: miter; stroke-miterlimit: 4; is-custom-font: none; font-file-url: none; fill: rgb(255,255,255); fill-rule: nonzero; opacity: 1;" transform=" translate(-590.7347, -559.0898)" d="M 610.1 553 c -1.3 0.9 0.2 2.2 2.5 2.1 c 2.8 -0.1 4.1 1.7 1.6 2.4 c -1.9 0.5 -1.6 1.9 0.6 2.3 c 2.6 0.4 2.3 2.3 -0.4 2.4 c -2.2 0.1 -3 1.4 -1.4 2.1 c 2.1 0.9 0.2 2.4 -2.4 2 c -2.1 -0.3 -4 0.7 -3 1.6 c 1.2 1.2 -1.8 2.2 -3.9 1.4 c -1.7 -0.7 -4.3 -0.1 -4.2 0.9 c 0.1 1.3 -3.6 1.7 -4.9 0.5 c -1 -0.9 -3.9 -0.9 -4.7 0 c -1 1.2 -4.9 0.8 -5 -0.5 c -0.1 -1 -2.9 -1.6 -4.5 -0.9 c -2 0.9 -5.4 -0.2 -4.4 -1.4 c 0.8 -1 -1.4 -2 -3.5 -1.7 c -2.7 0.4 -5.1 -1.2 -3 -2.1 c 1.7 -0.7 0.5 -2.1 -1.9 -2.2 c -3 -0.1 -3.8 -2.1 -1 -2.5 c 2.3 -0.3 2.4 -1.8 0.1 -2.4 c -2.8 -0.7 -1.8 -2.6 1.3 -2.4 c 2.5 0.2 3.8 -1.1 2.2 -2.1 c -2 -1.2 0.6 -2.7 3.4 -1.9 c 2.2 0.6 4.6 -0.2 4 -1.4 c -0.9 -1.5 3 -2.2 4.9 -1 c 1.5 1 4.6 0.7 4.9 -0.4 c 0.5 -1.4 4.7 -1.4 5.4 0.1 c 0.6 1.2 3.6 1.5 4.9 0.6 c 1.6 -1.2 5.4 -0.3 4.9 1.1 c -0.4 1.1 2.1 2 4 1.5 c 2.4 -0.7 5.1 0.8 3.5 1.9 z" stroke-linecap="round"/>
</g>
		<g transform="matrix(1 0 0 1 77.6636 47.7248)">
<path style="stroke: none; stroke-width: 1; stroke-dasharray: none; stroke-linecap: butt; stroke-dashoffset: 0; stroke-linejoin: miter; stroke-miterlimit: 4; is-custom-font: none; font-file-url: none; fill: rgb(255,148,214); fill-rule: nonzero; opacity: 1;" transform=" translate(-589.6637, -559.7248)" d="M 580.7 565.1 c -2.6 -1.3 -4.4 -2.9 -5.1 -4.6 c -0.8 -2 0.1 -4 2.7 -5.7 c 2.5 -1.7 6.3 -2.8 10.6 -3.1 c 3.5 -0.3 7 0.1 9.9 1.1 c 2.8 1 4.6 2.4 5.1 4.1 c 0.4 1.3 -0.3 2.7 -2 3.8 c -1.7 1.1 -4.2 1.8 -7 2.1 c -4.9 0.4 -9.5 -1.1 -10.3 -3.4 c -0.3 -0.9 0.1 -1.9 1.3 -2.7 c 1.2 -0.8 3 -1.3 5 -1.5 c 1 -0.1 1.9 0.2 2.1 0.7 c 0.2 0.5 -0.5 0.9 -1.5 1 c -1.1 0.1 -2 0.4 -2.6 0.8 c -0.6 0.4 -0.9 0.9 -0.7 1.4 c 0.5 1.4 3.3 2.3 6.2 2.1 c 1.9 -0.2 3.6 -0.7 4.7 -1.4 s 1.6 -1.6 1.3 -2.5 c -0.8 -2.5 -5.7 -4.2 -10.9 -3.8 c -3.3 0.3 -6.2 1.1 -8.2 2.4 c -1.9 1.3 -2.7 2.9 -2.1 4.4 c 0.8 2 3.1 3.7 6.5 4.8 c 3.4 1.1 7.5 1.5 11.6 1.1 c 0.9 -0.1 1.8 0.2 2 0.6 c 0.1 0.4 -0.5 0.9 -1.4 0.9 c -5 0.4 -10 0 -14.2 -1.4 c -1.1 -0.3 -2.1 -0.7 -3 -1.2 z" stroke-linecap="round"/>
</g>
		<g transform="matrix(1 0 0 1 155.4598 2.2878)">
<path style="stroke: none; stroke-width: 1; stroke-dasharray: none; stroke-linecap: butt; stroke-dashoffset: 0; stroke-linejoin: miter; stroke-miterlimit: 4; is-custom-font: none; font-file-url: none; fill: rgb(255,255,255); fill-rule: nonzero; opacity: 1;" transform=" translate(-667.4598, -514.2878)" d="M 678.2 510.9 c -0.7 0.5 0.1 1.2 1.4 1.1 c 1.5 -0.1 2.2 0.9 0.9 1.3 c -1.1 0.3 -0.9 1.1 0.3 1.2 c 1.5 0.2 1.3 1.3 -0.2 1.3 c -1.2 0 -1.7 0.8 -0.8 1.2 c 1.1 0.5 0.1 1.3 -1.3 1.1 c -1.2 -0.2 -2.2 0.4 -1.7 0.9 c 0.7 0.6 -1 1.2 -2.2 0.8 c -0.9 -0.4 -2.4 -0.1 -2.3 0.5 c 0.1 0.7 -2 0.9 -2.7 0.3 c -0.5 -0.5 -2.2 -0.5 -2.6 0 c -0.5 0.7 -2.7 0.5 -2.8 -0.3 c -0.1 -0.6 -1.6 -0.9 -2.5 -0.5 c -1.1 0.5 -3 -0.1 -2.4 -0.8 c 0.5 -0.5 -0.8 -1.1 -2 -0.9 c -1.5 0.2 -2.8 -0.7 -1.6 -1.2 c 0.9 -0.4 0.3 -1.2 -1.1 -1.2 c -1.7 -0.1 -2.1 -1.2 -0.5 -1.4 c 1.2 -0.2 1.3 -1 0.1 -1.3 c -1.5 -0.4 -1 -1.5 0.7 -1.3 c 1.4 0.1 2.1 -0.6 1.2 -1.1 c -1.1 -0.7 0.4 -1.5 1.9 -1 c 1.2 0.3 2.6 -0.1 2.2 -0.8 c -0.5 -0.8 1.6 -1.2 2.7 -0.5 c 0.8 0.5 2.5 0.4 2.7 -0.2 c 0.2 -0.8 2.6 -0.7 3 0.1 c 0.3 0.6 2 0.8 2.7 0.3 c 0.9 -0.6 3 -0.1 2.7 0.6 c -0.2 0.6 1.1 1.1 2.2 0.8 c 1.4 -0.5 2.9 0.4 2 1 z" stroke-linecap="round"/>
</g>
		<g transform="matrix(1 0 0 1 155.0086 2.2736)">
<path style="stroke: none; stroke-width: 1; stroke-dasharray: none; stroke-linecap: butt; stroke-dashoffset: 0; stroke-linejoin: miter; stroke-miterlimit: 4; is-custom-font: none; font-file-url: none; fill: rgb(255,148,214); fill-rule: nonzero; opacity: 1;" transform=" translate(-667.0086, -514.2736)" d="M 662.1 517.5 c -1.4 -0.7 -2.4 -1.6 -2.8 -2.6 c -0.4 -1.1 0.1 -2.2 1.5 -3.2 c 1.4 -0.9 3.5 -1.5 5.8 -1.7 c 1.9 -0.1 3.9 0.1 5.4 0.6 c 1.6 0.5 2.5 1.3 2.8 2.2 c 0.2 0.7 -0.2 1.5 -1.1 2.1 c -0.9 0.6 -2.3 1 -3.8 1.1 c -2.7 0.2 -5.2 -0.6 -5.7 -1.9 c -0.2 -0.5 0.1 -1.1 0.7 -1.5 c 0.7 -0.4 1.6 -0.7 2.7 -0.8 c 0.5 0 1.1 0.1 1.1 0.4 c 0.1 0.3 -0.3 0.5 -0.8 0.5 c -0.6 0 -1.1 0.2 -1.4 0.4 c -0.3 0.2 -0.5 0.5 -0.4 0.8 c 0.3 0.8 1.8 1.3 3.4 1.1 c 1 -0.1 2 -0.4 2.6 -0.8 c 0.6 -0.4 0.9 -0.9 0.7 -1.4 c -0.4 -1.4 -3.1 -2.3 -6 -2.1 c -1.8 0.1 -3.4 0.6 -4.5 1.3 c -1.1 0.7 -1.5 1.6 -1.1 2.4 c 0.4 1.1 1.7 2 3.6 2.6 c 1.9 0.6 4.1 0.8 6.4 0.6 c 0.5 0 1 0.1 1.1 0.4 c 0.1 0.2 -0.3 0.5 -0.8 0.5 c -2.7 0.2 -5.5 0 -7.8 -0.8 c -0.6 0.3 -1.1 0.1 -1.6 -0.2 z" stroke-linecap="round"/>
</g>
		<g transform="matrix(1 0 0 1 -36.722 -76.3018)">
<path style="stroke: none; stroke-width: 1; stroke-dasharray: none; stroke-linecap: butt; stroke-dashoffset: 0; stroke-linejoin: miter; stroke-miterlimit: 4; is-custom-font: none; font-file-url: none; fill: rgb(255,255,255); fill-rule: nonzero; opacity: 1;" transform=" translate(-475.2781, -435.6981)" d="M 466.4 444.1 h 17.7 c 0.1 -0.5 0.2 -1.1 0.5 -1.4 c 1 -1 0.7 -3.6 -0.4 -3.4 c -0.9 0.1 -1.3 -1.7 -0.7 -3 c 0.7 -1.6 -0.1 -3.7 -1.1 -2.8 c -0.8 0.8 -1.6 -0.5 -1.4 -2.1 c 0.4 -1.9 -1 -3.2 -1.7 -1.6 c -0.6 1.3 -1.7 0.8 -1.8 -0.9 c -0.1 -2 -1.7 -2.2 -2 -0.2 c -0.3 1.6 -1.5 2 -1.9 0.6 c -0.6 -1.7 -2.1 -0.7 -2 1.4 c 0.1 1.7 -1 2.9 -1.8 2 c -1 -1.1 -2.3 1 -1.7 2.7 c 0.5 1.4 -0.3 3.3 -1.3 3.1 c -1.2 -0.3 -2 2.6 -1 3.7 c 0.6 0.4 0.7 1.2 0.6 1.9 z" stroke-linecap="round"/>
</g>
		<g transform="matrix(1 0 0 1 -38.232 -72.0749)">
<path style="stroke: none; stroke-width: 1; stroke-dasharray: none; stroke-linecap: butt; stroke-dashoffset: 0; stroke-linejoin: miter; stroke-miterlimit: 4; is-custom-font: none; font-file-url: none; fill: rgb(255,148,214); fill-rule: nonzero; opacity: 1;" transform=" translate(-473.768, -439.9252)" d="M 470.5 444.1 v -0.4 c 0.6 -3.8 2.6 -6.3 4.6 -5.4 c 0.7 0.3 1.3 1.1 1.7 2.3 c 0.3 1.1 0.4 2.3 0.2 3.6 h 1.4 c 0.1 -1.7 0 -3.5 -0.4 -5 c -0.5 -1.8 -1.4 -3 -2.5 -3.4 c -1.3 -0.6 -2.7 -0.1 -3.9 1.3 c -1.2 1.4 -2.1 3.6 -2.5 6.2 v 1 h 1.4 z" stroke-linecap="round"/>
</g>
		<g transform="matrix(1 0 0 1 -39.1873 -68.75)">
<path style="stroke: none; stroke-width: 1; stroke-dasharray: none; stroke-linecap: butt; stroke-dashoffset: 0; stroke-linejoin: miter; stroke-miterlimit: 4; is-custom-font: none; font-file-url: none; fill: rgb(255,148,214); fill-rule: nonzero; opacity: 1;" transform=" translate(-472.8127, -443.25)" d="M 472.1 443.6 v 0.4 h 1.4 c 0.1 -0.7 -0.1 -1.3 -0.5 -1.5 c -0.5 0 -0.8 0.4 -0.9 1.1 z" stroke-linecap="round"/>
</g>
		<g transform="matrix(1 0 0 1 42.05 -82.35)">
<path style="stroke: none; stroke-width: 1; stroke-dasharray: none; stroke-linecap: butt; stroke-dashoffset: 0; stroke-linejoin: miter; stroke-miterlimit: 4; is-custom-font: none; font-file-url: none; fill: rgb(255,255,255); fill-rule: nonzero; opacity: 1;" transform=" translate(-554.05, -429.65)" d="M 537.7 427.4 c 2.6 -0.5 18.9 -4.3 18.9 -4.3 l 13.8 7.7 l -20.2 5.4 l -12.5 -8.8 z" stroke-linecap="round"/>
</g>
		<g transform="matrix(1 0 0 1 42.05 -72.55)">
<path style="stroke: none; stroke-width: 1; stroke-dasharray: none; stroke-linecap: butt; stroke-dashoffset: 0; stroke-linejoin: miter; stroke-miterlimit: 4; is-custom-font: none; font-file-url: none; fill: rgb(255,255,255); fill-rule: nonzero; opacity: 1;" transform=" translate(-554.05, -439.45)" d="M 537.7 427.4 v 16.3 l 12.5 7.8 v -15.4 z M 550.2 436.1 l 20.2 -5.4 v 17.5 l -20.2 3.3 z" stroke-linecap="round"/>
</g>
		<g transform="matrix(1 0 0 1 -191.8 27.75)">
<path style="stroke: none; stroke-width: 1; stroke-dasharray: none; stroke-linecap: butt; stroke-dashoffset: 0; stroke-linejoin: miter; stroke-miterlimit: 4; is-custom-font: none; font-file-url: none; fill: rgb(255,255,255); fill-rule: nonzero; opacity: 1;" transform=" translate(-320.2, -539.75)" d="M 313.1 538.1 c 1.1 -0.1 7.6 -1.3 7.6 -1.3 l 6.6 4.7 l -9 1.2 l -5.2 -4.6 z" stroke-linecap="round"/>
</g>
		<g transform="matrix(1 0 0 1 -196.55 31.1)">
<path style="stroke: none; stroke-width: 1; stroke-dasharray: none; stroke-linecap: butt; stroke-dashoffset: 0; stroke-linejoin: miter; stroke-miterlimit: 4; is-custom-font: none; font-file-url: none; fill: rgb(255,255,255); fill-rule: nonzero; opacity: 1;" transform=" translate(-315.45, -543.1)" d="M 313.1 538.1 l -0.5 6.9 l 5.3 3.1 l 0.4 -5.3 z" stroke-linecap="round"/>
</g>
		<g transform="matrix(1 0 0 1 -189.4 32.8)">
<path style="stroke: none; stroke-width: 1; stroke-dasharray: none; stroke-linecap: butt; stroke-dashoffset: 0; stroke-linejoin: miter; stroke-miterlimit: 4; is-custom-font: none; font-file-url: none; fill: rgb(255,255,255); fill-rule: nonzero; opacity: 1;" transform=" translate(-322.6, -544.8)" d="M 318.3 542.8 l 9 -1.3 l -0.5 6.1 l -8.9 0.5 z" stroke-linecap="round"/>
</g>
		<g transform="matrix(1 0 0 1 -34.25 -16.3)">
<path style="stroke: none; stroke-width: 1; stroke-dasharray: none; stroke-linecap: butt; stroke-dashoffset: 0; stroke-linejoin: miter; stroke-miterlimit: 4; is-custom-font: none; font-file-url: none; fill: rgb(255,255,255); fill-rule: nonzero; opacity: 1;" transform=" translate(-477.75, -495.7)" d="M 467.7 488.9 c 1.6 -0.3 10.4 -3.3 10.4 -3.3 l 9.7 7.4 l -12.4 3.3 l -7.7 -7.4 z M 467.7 488.9 V 501 l 7.7 4.8 v -9.4 z" stroke-linecap="round"/>
</g>
		<g transform="matrix(1 0 0 1 -30.4 -12.55)">
<path style="stroke: none; stroke-width: 1; stroke-dasharray: none; stroke-linecap: butt; stroke-dashoffset: 0; stroke-linejoin: miter; stroke-miterlimit: 4; is-custom-font: none; font-file-url: none; fill: rgb(255,255,255); fill-rule: nonzero; opacity: 1;" transform=" translate(-481.6, -499.45)" d="M 475.4 496.4 l 12.4 -3.3 v 10.7 l -12.4 2 z" stroke-linecap="round"/>
</g>
		<g transform="matrix(1 0 0 1 -50.3193 -9.4965)">
<path style="stroke: none; stroke-width: 1; stroke-dasharray: none; stroke-linecap: butt; stroke-dashoffset: 0; stroke-linejoin: miter; stroke-miterlimit: 4; is-custom-font: none; font-file-url: none; fill: rgb(255,191,128); fill-rule: nonzero; opacity: 1;" transform=" translate(-461.6807, -502.5035)" d="M 373 546.7 s 56.3 -0.6 68.4 1 s 39.7 3.9 39.7 3.9 s 76.6 -5.5 85.8 -4.9 s -97.6 16.8 -106.3 14.5 c -8.8 -2.2 -76 -10.7 -87.6 -14.5 z M 355.9 446.3 s 56.3 -0.6 68.4 1 c 12.1 1.6 41.8 -3.2 41.8 -3.2 s 52 -2.5 57 3.5 c -27.4 -3.2 -61.9 6.8 -93.6 7.8 c -9 0.3 -62 -5.4 -73.6 -9.1 z" stroke-linecap="round"/>
</g>
		<g transform="matrix(1 0 0 1 0 -28.6)">
<path style="stroke: none; stroke-width: 1; stroke-dasharray: none; stroke-linecap: butt; stroke-dashoffset: 0; stroke-linejoin: miter; stroke-miterlimit: 4; is-custom-font: none; font-file-url: none; fill: rgb(38,38,38); fill-rule: nonzero; opacity: 1;" transform=" translate(-512, -483.4)" d="M 512 362.3 c 171.8 0 311 54.2 311 121.1 S 683.8 604.5 512 604.5 s -311 -54.2 -311 -121.1 s 139.2 -121.1 311 -121.1 m 0 -41.9 c -175.4 0 -352.9 56 -352.9 163 s 177.5 163 352.9 163 c 175.4 0 352.9 -56 352.9 -163 s -177.5 -163 -352.9 -163 z" stroke-linecap="round"/>
</g>
		<g transform="matrix(1 0 0 1 -128.0435 -323.3346)">
<path style="stroke: none; stroke-width: 1; stroke-dasharray: none; stroke-linecap: butt; stroke-dashoffset: 0; stroke-linejoin: miter; stroke-miterlimit: 4; is-custom-font: none; font-file-url: none; fill: rgb(38,38,38); fill-rule: nonzero; opacity: 1;" transform=" translate(-383.9566, -188.6654)" d="M 382.2 278.1 c -2.9 0 -5.9 -1 -8.3 -3.1 c -5.2 -4.6 -5.8 -12.5 -1.2 -17.7 c 23.4 -26.8 15.6 -47.9 8.9 -58.2 c -1.8 -2.8 -4.4 -5.9 -7.2 -9.1 c -13.4 -15.8 -35.7 -42.2 -3.4 -85.7 c 4.1 -5.6 12 -6.7 17.6 -2.6 c 5.6 4.1 6.7 12 2.6 17.6 c -20.4 27.5 -10.9 38.9 2.4 54.5 c 3.1 3.7 6.4 7.5 9.1 11.6 c 6.7 10.2 25.6 46.6 -11 88.5 c -2.6 2.7 -6 4.2 -9.5 4.2 z" stroke-linecap="round"/>
</g>
		<g transform="matrix(1 0 0 1 -1.0153 -365.0846)">
<path style="stroke: none; stroke-width: 1; stroke-dasharray: none; stroke-linecap: butt; stroke-dashoffset: 0; stroke-linejoin: miter; stroke-miterlimit: 4; is-custom-font: none; font-file-url: none; fill: rgb(38,38,38); fill-rule: nonzero; opacity: 1;" transform=" translate(-510.9847, -146.9154)" d="M 509.3 236.4 c -2.9 0 -5.9 -1 -8.3 -3.1 c -5.2 -4.6 -5.8 -12.5 -1.2 -17.7 c 23.4 -26.8 15.6 -47.9 8.9 -58.2 c -1.8 -2.8 -4.4 -5.9 -7.2 -9.1 c -13.4 -15.8 -35.8 -42.2 -3.4 -85.8 c 4.1 -5.6 12 -6.7 17.6 -2.6 c 5.6 4.1 6.7 12 2.6 17.6 c -20.4 27.5 -10.9 38.9 2.4 54.5 c 3.1 3.7 6.4 7.5 9 11.6 c 6.7 10.2 25.6 46.6 -11 88.5 c -2.4 2.9 -5.9 4.3 -9.4 4.3 z" stroke-linecap="round"/>
</g>
		<g transform="matrix(1 0 0 1 126.1565 -323.3346)">
<path style="stroke: none; stroke-width: 1; stroke-dasharray: none; stroke-linecap: butt; stroke-dashoffset: 0; stroke-linejoin: miter; stroke-miterlimit: 4; is-custom-font: none; font-file-url: none; fill: rgb(38,38,38); fill-rule: nonzero; opacity: 1;" transform=" translate(-638.1566, -188.6654)" d="M 636.4 278.1 c -2.9 0 -5.9 -1 -8.3 -3.1 c -5.2 -4.6 -5.8 -12.5 -1.2 -17.7 c 23.4 -26.8 15.6 -47.9 8.9 -58.2 c -1.8 -2.8 -4.4 -5.9 -7.2 -9.1 c -13.4 -15.8 -35.7 -42.2 -3.4 -85.7 c 4.1 -5.6 12 -6.7 17.6 -2.6 c 5.6 4.1 6.7 12 2.6 17.6 c -20.4 27.5 -10.9 38.9 2.4 54.5 c 3.1 3.7 6.4 7.5 9.1 11.6 c 6.7 10.2 25.6 46.6 -11 88.5 c -2.5 2.7 -6 4.2 -9.5 4.2 z" stroke-linecap="round"/>
</g>
</g>
</g>
</svg>